<svg width="23" height="23" viewBox="0 0 23 23" fill="none" xmlns="http://www.w3.org/2000/svg">
<g clip-path="url(#clip0_1_502)">
<path d="M19.8089 15.0204C19.6563 14.9392 19.5314 14.8142 19.4502 14.6616C19.4502 14.6616 18.5173 9.49525 18.3738 7.55787C18.3369 6.60832 18.0259 5.68974 17.4784 4.91305C16.9309 4.13635 16.1703 3.53474 15.2884 3.18084C14.9296 3.03733 14.5708 2.96557 14.2121 2.82206C14.2121 2.48284 14.1452 2.14693 14.0154 1.83353C13.8856 1.52012 13.6953 1.23535 13.4555 0.995485C13.2156 0.755615 12.9308 0.56534 12.6174 0.435524C12.304 0.305707 11.9681 0.238892 11.6289 0.238892C11.2897 0.238892 10.9538 0.305707 10.6404 0.435524C10.3269 0.56534 10.0422 0.755615 9.80231 0.995485C9.56244 1.23535 9.37217 1.52012 9.24235 1.83353C9.11253 2.14693 9.04572 2.48284 9.04572 2.82206C8.7587 2.96557 8.39992 3.03733 8.04115 3.18084H7.9694C7.06423 3.50956 6.27865 4.10256 5.71444 4.88298C5.15024 5.6634 4.83341 6.59528 4.80501 7.55787C4.6615 9.56701 3.8722 14.7333 3.8722 14.7333C3.8722 14.8769 3.80045 14.9486 3.65694 15.0204C3.41103 15.046 3.18011 15.1508 2.99893 15.3191C2.81776 15.4873 2.69613 15.7098 2.65237 15.9532C2.62123 16.2374 2.70077 16.5228 2.87447 16.7499C3.04817 16.9771 3.3027 17.1286 3.58518 17.173H19.5147C19.6569 17.1759 19.7982 17.1501 19.9301 17.0971C20.062 17.044 20.1818 16.9648 20.2823 16.8643C20.3829 16.7638 20.462 16.6439 20.5151 16.512C20.5681 16.3801 20.594 16.2388 20.5911 16.0967C20.6002 15.8556 20.5281 15.6184 20.3862 15.4232C20.2444 15.228 20.0411 15.0861 19.8089 15.0204ZM14.4991 18.5363H8.7587C8.57164 18.5318 8.38914 18.5944 8.24432 18.7129C8.0995 18.8314 8.00196 18.9979 7.9694 19.1821C7.95866 19.2833 7.98408 19.385 8.04115 19.4692C8.2942 20.4172 8.9105 21.2274 9.7566 21.7243C10.6027 22.2212 11.6105 22.3648 12.5617 22.1241C13.1958 21.9485 13.7736 21.6116 14.2389 21.1463C14.7041 20.6811 15.041 20.1033 15.2166 19.4692C15.2508 19.3797 15.2668 19.2844 15.2636 19.1887C15.2604 19.093 15.2381 18.9989 15.198 18.912C15.1579 18.8251 15.1007 18.7471 15.03 18.6825C14.9593 18.618 14.8763 18.5683 14.7861 18.5363H14.4991Z" fill="#4D4751"/>
</g>
<defs>
<clipPath id="clip0_1_502">
<rect width="22" height="22" fill="white" transform="translate(0.625244 0.238892)"/>
</clipPath>
</defs>
</svg>
