<svg width="27" height="71" viewBox="0 0 27 71" fill="none" xmlns="http://www.w3.org/2000/svg">
<g clip-path="url(#clip0_1_426)">
<path d="M23.4826 27.4598C22.9258 26.8726 22.2588 26.4009 21.5196 26.0715C20.7804 25.7422 19.9836 25.5617 19.1747 25.5403C18.3657 25.519 17.5605 25.6572 16.805 25.9471C16.0495 26.237 15.3585 26.673 14.7715 27.23L14.5417 27.4598C14.1206 27.902 13.7638 28.4011 13.4815 28.9425C13.1992 28.4011 12.8424 27.902 12.4213 27.4598C11.8643 26.8704 11.1963 26.3968 10.4558 26.0661C9.7153 25.7354 8.91678 25.5542 8.10607 25.5329C7.29536 25.5115 6.48841 25.6505 5.73152 25.9417C4.97462 26.2329 4.28267 26.6707 3.69536 27.23L3.46553 27.4598C2.27601 28.7122 1.61279 30.3735 1.61279 32.1008C1.61279 33.8281 2.27601 35.4894 3.46553 36.7418L10.7384 44.289C11.426 45.0141 12.3727 45.4374 13.3715 45.4666C14.3704 45.4958 15.3401 45.1284 16.0689 44.4447L16.1875 44.3186L23.4826 36.7418C24.7104 35.5093 25.3998 33.8405 25.3998 32.1008C25.3998 30.3611 24.7104 28.6923 23.4826 27.4598Z" fill="#4D4751"/>
</g>
<defs>
<clipPath id="clip0_1_426">
<rect width="26" height="70" fill="white" transform="translate(0.5 0.5)"/>
</clipPath>
</defs>
</svg>
