<svg width="15" height="19" viewBox="0 0 15 19" fill="none" xmlns="http://www.w3.org/2000/svg">
<g clip-path="url(#clip0_1_1151)">
<g clip-path="url(#clip1_1_1151)">
<path d="M6.13672 13.7257C6.51075 14.0787 7.00554 14.2752 7.51978 14.2752C8.03402 14.2752 8.52882 14.0787 8.90285 13.7257L13.927 8.70155C14.1148 8.51759 14.264 8.29801 14.3658 8.05567C14.4676 7.81334 14.5201 7.55312 14.5201 7.29026C14.5201 7.0274 14.4676 6.76718 14.3658 6.52485C14.264 6.28251 14.1148 6.06293 13.927 5.87897C13.7431 5.69121 13.5235 5.54205 13.2812 5.44022C13.0388 5.33839 12.7786 5.28594 12.5157 5.28594C12.2529 5.28594 11.9927 5.33839 11.7503 5.44022C11.508 5.54205 11.2884 5.69121 11.1045 5.87897L7.49156 9.49187L3.9351 5.87897C3.75114 5.69121 3.53156 5.54205 3.28923 5.44022C3.04689 5.33839 2.78667 5.28594 2.52381 5.28594C2.26095 5.28594 2.00074 5.33839 1.7584 5.44022C1.51607 5.54205 1.29649 5.69121 1.11252 5.87897C0.924766 6.06293 0.775604 6.28251 0.673774 6.52485C0.571944 6.76718 0.519493 7.0274 0.519493 7.29026C0.519493 7.55312 0.571944 7.81334 0.673774 8.05567C0.775604 8.29801 0.924766 8.51759 1.11252 8.70155L6.13672 13.7257Z" fill="#4D4751"/>
</g>
</g>
<defs>
<clipPath id="clip0_1_1151">
<rect width="14" height="18" fill="white" transform="translate(0.520004 0.779999)"/>
</clipPath>
<clipPath id="clip1_1_1151">
<rect width="14" height="8.9871" fill="white" transform="translate(0.520004 5.28645)"/>
</clipPath>
</defs>
</svg>
