<svg width="101" height="101" viewBox="0 0 101 101" fill="none" xmlns="http://www.w3.org/2000/svg">
<path fill-rule="evenodd" clip-rule="evenodd" d="M80.8731 38.9245C80.8731 39.8972 80.0912 40.6867 79.1278 40.6867H69.2374V50.6722C69.2374 51.6449 68.4554 52.4343 67.492 52.4343C66.5286 52.4343 65.7466 51.6449 65.7466 50.6722V40.6867H55.8562C54.8928 40.6867 54.1109 39.8972 54.1109 38.9245C54.1109 37.9518 54.8928 37.1624 55.8562 37.1624H65.7466V27.1769C65.7466 26.2042 66.5286 25.4147 67.492 25.4147C68.4554 25.4147 69.2374 26.2042 69.2374 27.1769V37.1624H79.1278C80.0912 37.1624 80.8731 37.9518 80.8731 38.9245ZM84.9711 54.6002L50.9784 89.0161L16.988 54.6002C8.92668 45.4394 9.32464 31.502 17.9025 22.8369C22.2334 18.4668 27.9861 16.0632 34.1065 16.0632C38.9726 16.0632 44.1249 17.6515 48.3301 20.9549L33.5666 36.2551C32.9173 36.927 32.9243 38.0008 33.5829 38.6657L33.5876 38.6727C33.918 39.004 34.3532 39.1708 34.786 39.1708C35.2236 39.1708 35.6564 39.004 35.9892 38.6704L52.519 21.9817C56.7381 18.166 62.1813 16.0632 67.8503 16.0632C73.9707 16.0632 79.7257 18.4668 84.0542 22.8369C92.6345 31.4996 93.0347 45.4394 84.9711 54.6002ZM86.5233 20.3468C81.5362 15.3094 74.9062 12.5393 67.8502 12.5393C61.674 12.5393 55.7234 14.7055 50.983 18.6668C50.8318 18.4859 50.6619 18.3191 50.4734 18.1711C45.8423 14.5387 40.0314 12.5393 34.1065 12.5393C27.0529 12.5393 20.4228 15.3094 15.4357 20.3468C5.55928 30.3205 5.09385 46.3937 14.3792 56.9431C14.4234 56.9924 14.47 57.0417 14.5165 57.0887L48.5069 91.507C49.1632 92.1696 50.0522 92.5408 50.9784 92.5408C51.9069 92.5408 52.7982 92.1696 53.4521 91.507L87.4426 57.0864C87.4914 57.0417 87.5356 56.99 87.5822 56.9407C96.8652 46.3937 96.3998 30.3182 86.5233 20.3468Z" fill="#6504B5"/>
</svg>
