<svg width="45" height="45" viewBox="0 0 45 45" fill="none" xmlns="http://www.w3.org/2000/svg">
<rect width="45" height="45" rx="22.5" fill="#6504B5"/>
<g clip-path="url(#clip0_1_1118)">
<g clip-path="url(#clip1_1_1118)">
<path d="M32.4826 14.4598C31.9258 13.8726 31.2587 13.4009 30.5196 13.0715C29.7804 12.7422 28.9836 12.5617 28.1746 12.5403C27.3657 12.519 26.5605 12.6572 25.805 12.9471C25.0495 13.237 24.3585 13.673 23.7715 14.23L23.5416 14.4598C23.1206 14.902 22.7637 15.4011 22.4815 15.9426C22.1992 15.4011 21.8423 14.902 21.4213 14.4598C20.8642 13.8704 20.1963 13.3968 19.4558 13.0661C18.7153 12.7355 17.9167 12.5543 17.106 12.5329C16.2953 12.5115 15.4884 12.6505 14.7315 12.9417C13.9746 13.2329 13.2826 13.6707 12.6953 14.23L12.4655 14.4598C11.276 15.7122 10.6128 17.3735 10.6128 19.1008C10.6128 20.8281 11.276 22.4894 12.4655 23.7418L19.7384 31.289C20.426 32.0141 21.3727 32.4375 22.3715 32.4666C23.3703 32.4958 24.3401 32.1284 25.0689 31.4447L25.1875 31.3187L32.4826 23.7418C33.7104 22.5093 34.3998 20.8405 34.3998 19.1008C34.3998 17.3611 33.7104 15.6923 32.4826 14.4598Z" stroke="white" stroke-width="2.22412" stroke-miterlimit="10"/>
</g>
</g>
<defs>
<clipPath id="clip0_1_1118">
<rect width="26" height="45" fill="white" transform="translate(9.5)"/>
</clipPath>
<clipPath id="clip1_1_1118">
<rect width="26" height="45" fill="white" transform="translate(9.5)"/>
</clipPath>
</defs>
</svg>
