<svg width="69" height="71" viewBox="0 0 69 71" fill="none" xmlns="http://www.w3.org/2000/svg">
<g clip-path="url(#clip0_1_108)">
<g clip-path="url(#clip1_1_108)">
<path d="M17.157 30.5612C17.157 24.9658 13.3917 20.4205 8.77357 20.4205C4.15539 20.4215 0.390137 24.9658 0.390137 30.5632C0.390137 36.1586 4.15539 40.6874 8.77357 40.6874C13.3917 40.6874 17.157 36.1431 17.157 30.5622V30.5612ZM8.77357 37.8489C5.71648 37.8489 3.23837 34.58 3.23837 30.5457C3.23837 26.5123 5.71551 23.2435 8.77357 23.2435C11.8307 23.2435 14.2767 26.5269 14.2767 30.5622C14.2767 34.5956 11.8307 37.8489 8.77357 37.8489ZM68.3901 30.5457C68.3901 24.9648 64.6249 20.4215 60.0067 20.4215C55.3885 20.4215 51.6233 24.9648 51.6233 30.5622C51.6021 30.7602 51.6232 30.9604 51.6851 31.1497C51.7471 31.3389 51.8485 31.5128 51.9827 31.6599C52.1173 31.8086 52.2816 31.9274 52.465 32.0086C52.6484 32.0898 52.8468 32.1315 53.0474 32.1311C53.2478 32.1309 53.4459 32.089 53.6292 32.008C53.8125 31.9271 53.977 31.8089 54.1121 31.6609C54.2459 31.5134 54.3471 31.3392 54.4091 31.1499C54.471 30.9606 54.4923 30.7603 54.4715 30.5622C54.4715 26.5434 56.9487 23.259 60.0067 23.259C63.0638 23.259 65.5419 26.5279 65.5419 30.5612C65.5419 34.58 63.0648 37.8489 60.0067 37.8489C59.6278 37.8484 59.264 37.9975 58.9945 38.2637C58.8619 38.395 58.7567 38.5513 58.6848 38.7236C58.613 38.8958 58.576 39.0806 58.576 39.2672C58.576 39.4538 58.613 39.6386 58.6848 39.8108C58.7567 39.983 58.8619 40.1393 58.9945 40.2707C59.2639 40.5373 59.6277 40.6867 60.0067 40.6864C64.6249 40.6864 68.3901 36.1421 68.3901 30.5457ZM44.8495 22.8287C49.4677 22.8287 53.2329 18.2843 53.2329 12.6879C53.2329 7.09152 49.4512 2.54718 44.8495 2.54718C40.2469 2.54718 36.4661 7.09152 36.4661 12.6879C36.4661 18.2843 40.1993 22.8287 44.8495 22.8287ZM44.8495 5.38569C47.9066 5.38569 50.3847 8.65358 50.3847 12.6879C50.3847 16.7223 47.8745 19.9902 44.8495 19.9902C41.8245 19.9902 39.3143 16.7223 39.3143 12.6879C39.3143 8.65358 41.7759 5.38569 44.8495 5.38569ZM23.9308 22.8287C28.5489 22.8287 32.3142 18.2843 32.3142 12.6879C32.3142 7.09152 28.581 2.54718 23.9308 2.54718C19.2805 2.54718 15.5473 7.09152 15.5473 12.6879C15.5473 18.2843 19.3291 22.8287 23.9308 22.8287ZM23.9308 5.38569C26.9888 5.38569 29.466 8.65358 29.466 12.6879C29.466 16.7223 27.0044 19.9902 23.9308 19.9902C20.8581 19.9902 18.3956 16.7223 18.3956 12.6879C18.3956 8.65358 20.9057 5.38569 23.9308 5.38569ZM54.5036 48.2286L45.6539 32.8742C42.725 27.8189 38.7178 25.029 34.3901 25.029C30.0615 25.029 26.0553 27.8189 23.1264 32.8732L14.2767 48.2121C13.6897 49.2245 13.2048 50.2929 12.8293 51.4013C12.2832 52.8093 12.0096 54.3083 12.023 55.8184C12.0579 58.8629 13.2584 61.7783 15.3773 63.9648C17.5076 66.1631 20.391 67.4736 23.448 67.6329H23.9308C25.539 67.6382 27.1318 67.318 28.6131 66.6916C29.6758 66.2778 31.4457 65.4802 33.2798 64.6195L33.9404 64.8906C37.5177 66.5334 41.3824 67.4594 45.3158 67.6164C48.3775 67.4697 51.2703 66.1696 53.4127 63.9774C55.5433 61.7967 56.7572 58.8824 56.8049 55.8339C56.7688 54.3559 56.5027 52.8926 56.0161 51.4965C55.624 50.3587 55.1172 49.2638 54.5036 48.2286ZM45.3003 64.7944C42.3826 64.7001 39.5053 64.0849 36.8041 62.9778L37.3511 62.7058L38.9597 61.9724C39.0666 61.9112 39.1637 61.8364 39.2492 61.749L40.8589 60.9359L42.3714 60.1704C42.7065 59.9994 42.9601 59.7041 43.0767 59.3486C43.1345 59.1724 43.1569 58.9865 43.1428 58.8017C43.1286 58.6168 43.0781 58.4365 42.9941 58.2712C42.8235 57.9364 42.5279 57.6823 42.1713 57.564C41.8132 57.4448 41.4226 57.4706 41.0833 57.6359L39.4746 58.4004C36.9809 59.6604 32.8135 61.781 31.0591 62.4989L30.8988 62.6106C29.5631 63.2323 28.3245 63.7744 27.5513 64.0775C26.3385 64.617 25.0155 64.8626 23.6899 64.7944H23.5441C21.2202 64.6753 19.0267 63.6838 17.4018 62.018C15.7853 60.3608 14.8631 58.1486 14.8236 55.8339C14.8274 55.7968 14.8274 55.7594 14.8236 55.7222C14.83 54.5812 15.0483 53.4514 15.4677 52.3902C15.7873 51.4479 16.2021 50.5396 16.7063 49.6799L25.5404 34.2925C27.9379 30.1474 31.0591 27.9151 34.3416 27.9151C37.625 27.9151 40.7782 30.195 43.1427 34.2925L52.041 49.6469C52.5442 50.5086 52.959 51.4159 53.2805 52.3572C53.6856 53.4743 53.9139 54.6478 53.9566 55.8339C53.9223 58.1393 53.0104 60.345 51.4067 62.0015C49.7941 63.6668 47.6146 64.6639 45.3003 64.7944Z" fill="white"/>
</g>
</g>
<defs>
<clipPath id="clip0_1_108">
<rect width="68" height="70" fill="white" transform="translate(0.390137 0.0900269)"/>
</clipPath>
<clipPath id="clip1_1_108">
<rect width="68" height="70" fill="white" transform="translate(0.390137 0.0900269)"/>
</clipPath>
</defs>
</svg>
