<svg width="62" height="59" viewBox="0 0 62 59" fill="none" xmlns="http://www.w3.org/2000/svg">
<g clip-path="url(#clip0_1_526)">
<path d="M60.6748 14.4884L31.396 0.179055C31.2542 0.110657 31.0988 0.0751343 30.9414 0.0751343C30.784 0.0751343 30.6286 0.110657 30.4869 0.179055L1.19561 14.4884C1.07664 14.5443 0.970076 14.6234 0.882199 14.7212C0.794322 14.8189 0.726918 14.9332 0.683966 15.0574C0.641014 15.1817 0.623384 15.3132 0.632119 15.4444C0.640853 15.5755 0.675775 15.7036 0.734821 15.821C0.859833 16.0594 1.07291 16.2396 1.32874 16.3233C1.58457 16.407 1.86297 16.3877 2.10473 16.2693L30.9352 2.18411L59.7656 16.2693C59.9097 16.3372 60.0673 16.3712 60.2264 16.3689C60.4136 16.3697 60.5975 16.319 60.7578 16.2224C60.9181 16.1257 61.0488 15.9869 61.1356 15.821C61.1946 15.7036 61.2295 15.5755 61.2383 15.4444C61.247 15.3132 61.2294 15.1817 61.1864 15.0574C61.1435 14.9332 61.076 14.8189 60.9882 14.7212C60.9003 14.6234 60.7937 14.5443 60.6748 14.4884ZM51.3967 45.5481C50.6122 45.1926 49.722 45.1481 48.906 45.4236L38.121 47.9143C38.2141 46.9984 37.9657 46.0804 37.4236 45.3364C36.8245 44.5253 35.9293 43.9837 34.9328 43.8295L25.4306 41.7746H25.3061C24.244 41.4824 23.1314 41.4224 22.044 41.5986C20.9566 41.7748 19.92 42.1832 19.0045 42.7958C17.4727 43.8295 9.93815 48.7114 9.85097 48.7612C9.73988 48.8318 9.6441 48.924 9.56929 49.0323C9.49449 49.1407 9.44218 49.2629 9.41547 49.3918C9.38876 49.5207 9.38819 49.6537 9.4138 49.7828C9.4394 49.9119 9.49066 50.0346 9.56454 50.1435C9.65825 50.2818 9.78447 50.395 9.93212 50.4732C10.0798 50.5514 10.2443 50.5921 10.4114 50.5919C10.6099 50.5928 10.8044 50.5366 10.9718 50.43C11.2832 50.2307 18.6184 45.4485 20.1502 44.4397C20.856 43.9673 21.6594 43.6604 22.5004 43.5418C23.3414 43.4232 24.1983 43.496 25.0072 43.7548H25.0944L34.5343 45.7972C34.7799 45.8272 35.0169 45.9066 35.231 46.0308C35.445 46.1549 35.6317 46.3212 35.7797 46.5195C35.9213 46.7104 36.0229 46.9279 36.0786 47.159C36.1342 47.3901 36.1427 47.6301 36.1035 47.8645C36.021 48.3369 35.7576 48.7585 35.3693 49.0398C34.981 49.3212 34.4983 49.4401 34.0237 49.3714L27.7968 48.126C27.6651 48.0927 27.5281 48.086 27.3938 48.1063C27.2595 48.1266 27.1305 48.1735 27.0146 48.2442C26.8986 48.315 26.7979 48.4082 26.7184 48.5183C26.6388 48.6285 26.5821 48.7534 26.5515 48.8857C26.5243 49.015 26.523 49.1484 26.5479 49.2781C26.5727 49.4079 26.6231 49.5314 26.6961 49.6415C26.7691 49.7516 26.8633 49.8461 26.9732 49.9194C27.083 49.9928 27.2064 50.0436 27.3361 50.0688L33.5629 51.3142C33.7702 51.331 33.9784 51.331 34.1856 51.3142C35.2242 51.3093 36.2184 50.8928 36.9504 50.156L49.4041 47.2667H49.5162C49.84 47.1371 50.2012 47.1371 50.525 47.2667C50.6839 47.3349 50.8269 47.4355 50.9448 47.562C51.0627 47.6885 51.153 47.8382 51.2099 48.0015C51.2877 48.1633 51.3296 48.3401 51.3327 48.5196C51.3358 48.6991 51.3001 48.8772 51.2279 49.0416C51.1558 49.2061 51.0489 49.3529 50.9147 49.4722C50.7804 49.5915 50.622 49.6803 50.4502 49.7326L37.0873 54.4899C36.4298 54.7634 35.6956 54.7899 35.02 54.5646L23.8116 52.2233C23.5747 52.1738 23.3279 52.2091 23.1142 52.323L15.3804 56.3704C15.2641 56.4307 15.161 56.5136 15.0772 56.6142C14.9933 56.7148 14.9304 56.8312 14.8921 56.9565C14.8538 57.0818 14.841 57.2134 14.8542 57.3438C14.8675 57.4741 14.9067 57.6004 14.9695 57.7154C15.1009 57.9505 15.3189 58.1251 15.5771 58.2018C15.8353 58.2786 16.1133 58.2515 16.3518 58.1264L23.8241 54.2408L34.6589 56.5074C35.7268 56.8179 36.8685 56.7564 37.8968 56.3331L51.1726 51.6006C51.7907 51.3856 52.3295 50.989 52.7185 50.4627C53.1075 49.9364 53.3285 49.305 53.3528 48.651C53.377 47.997 53.2032 47.3509 52.8542 46.7973C52.5052 46.2436 51.9972 45.8083 51.3967 45.5481ZM18.0705 23.7416C17.9983 24.727 18.3195 25.7009 18.9637 26.4501C19.6079 27.1993 20.5226 27.6628 21.5077 27.7392C22.4839 27.6504 23.386 27.1816 24.0197 26.4338C24.6534 25.686 24.9678 24.7191 24.8951 23.7416C24.9672 22.7561 24.6461 21.7823 24.0019 21.0331C23.3577 20.2838 22.443 19.8203 21.4579 19.7439C20.4817 19.8327 19.5796 20.3015 18.9459 21.0494C18.3122 21.7972 17.9978 22.7641 18.0705 23.7416ZM23.2139 23.7416C23.2736 24.2716 23.131 24.8046 22.8147 25.2341C22.4983 25.6635 22.0316 25.9578 21.5077 26.058C20.9746 25.9689 20.4958 25.6794 20.1694 25.2487C19.8429 24.8181 19.6935 24.2789 19.7517 23.7416C19.6924 23.2097 19.8367 22.6752 20.1555 22.2454C20.4744 21.8157 20.9442 21.5226 21.4703 21.4252C21.9942 21.5254 22.461 21.8196 22.7773 22.2491C23.0936 22.6785 23.2362 23.2115 23.1765 23.7416H23.2139ZM40.4 27.7392C41.3852 27.6628 42.2999 27.1993 42.9441 26.4501C43.5882 25.7009 43.9094 24.727 43.8373 23.7416C43.9094 22.7561 43.5882 21.7823 42.9441 21.0331C42.2999 20.2838 41.3852 19.8203 40.4 19.7439C39.4172 19.8234 38.5056 20.2883 37.864 21.0372C37.2225 21.786 36.903 22.7581 36.9753 23.7416C36.903 24.725 37.2225 25.6971 37.864 26.446C38.5056 27.1948 39.4172 27.6597 40.4 27.7392ZM40.4 21.4127C40.9286 21.5102 41.4003 21.8051 41.7195 22.2376C42.0386 22.6701 42.1813 23.2077 42.1187 23.7416C42.1784 24.2716 42.0358 24.8046 41.7195 25.2341C41.4031 25.6635 40.9364 25.9578 40.4125 26.058C39.8863 25.9605 39.4166 25.6675 39.0977 25.2377C38.7789 24.808 38.6346 24.2734 38.6939 23.7416C38.6308 23.2095 38.7718 22.6734 39.0885 22.2412C39.4051 21.8091 39.8738 21.513 40.4 21.4127Z" fill="white"/>
<path d="M34.7958 13.2555C33.8107 13.3319 32.896 13.7954 32.2518 14.5446C31.6077 15.2938 31.2865 16.2677 31.3586 17.2532C31.2865 18.2386 31.6077 19.2125 32.2518 19.9617C32.896 20.7109 33.8107 21.1744 34.7958 21.2508C35.781 21.1744 36.6957 20.7109 37.3399 19.9617C37.984 19.2125 38.3052 18.2386 38.2331 17.2532C38.3052 16.2677 37.984 15.2938 37.3399 14.5446C36.6957 13.7954 35.781 13.3319 34.7958 13.2555ZM34.7958 19.582C34.272 19.4818 33.8052 19.1876 33.4889 18.7581C33.1726 18.3287 33.03 17.7956 33.0897 17.2656C33.03 16.7356 33.1726 16.2025 33.4889 15.7731C33.8052 15.3436 34.272 15.0494 34.7958 14.9492C35.3197 15.0494 35.7865 15.3436 36.1028 15.7731C36.4191 16.2025 36.5617 16.7356 36.502 17.2656C36.5617 17.7956 36.4191 18.3287 36.1028 18.7581C35.7865 19.1876 35.3197 19.4818 34.7958 19.582ZM27.0745 13.2555C26.0894 13.3319 25.1747 13.7954 24.5305 14.5446C23.8863 15.2938 23.5652 16.2677 23.6373 17.2532C23.5652 18.2386 23.8863 19.2125 24.5305 19.9617C25.1747 20.7109 26.0894 21.1744 27.0745 21.2508C28.0619 21.1775 28.9797 20.7153 29.6266 19.9658C30.2734 19.2162 30.5962 18.2406 30.5242 17.2532C30.5962 16.2657 30.2734 15.2901 29.6266 14.5405C28.9797 13.791 28.0619 13.3288 27.0745 13.2555ZM27.0745 19.582C26.5506 19.4818 26.0839 19.1876 25.7675 18.7581C25.4512 18.3287 25.3087 17.7956 25.3684 17.2656C25.3087 16.7356 25.4512 16.2025 25.7675 15.7731C26.0839 15.3436 26.5506 15.0494 27.0745 14.9492C27.5984 15.0494 28.0652 15.3436 28.3815 15.7731C28.6978 16.2025 28.8404 16.7356 28.7807 17.2656C28.8404 17.7956 28.6978 18.3287 28.3815 18.7581C28.0652 19.1876 27.5984 19.4818 27.0745 19.582ZM26.4767 24.4141L23.1889 29.9684C22.9583 30.3624 22.7704 30.7799 22.6285 31.2138C22.4097 31.7645 22.2997 32.3524 22.3047 32.9449C22.3325 34.1476 22.8184 35.2943 23.6633 36.1507C24.5082 37.0072 25.6481 37.5087 26.8503 37.5528H27.087C27.7141 37.5564 28.3358 37.438 28.9177 37.2041L29.4656 37.0297C29.9356 36.8477 30.4318 36.7426 30.9352 36.7184C31.4386 36.7422 31.9349 36.8473 32.4047 37.0297L33.015 37.1792C33.6425 37.3686 34.2906 37.4815 34.9453 37.5154H35.0076C36.213 37.468 37.3548 36.9621 38.1997 36.101C39.0446 35.24 39.5287 34.0887 39.5532 32.8826C39.5373 32.3135 39.4323 31.7504 39.2418 31.2138C39.0925 30.7808 38.9006 30.3636 38.669 29.9684L35.3812 24.4016C34.9722 23.5489 34.3437 22.8204 33.5602 22.2907C32.7767 21.7611 31.8664 21.4495 30.9227 21.3878C29.9799 21.4528 29.0713 21.7673 28.2901 22.2991C27.5088 22.8308 26.883 23.5608 26.4767 24.4141ZM33.949 25.2609L37.2368 30.8278C37.4112 31.1203 37.5572 31.4289 37.6727 31.7493C37.8001 32.1142 37.8715 32.4963 37.8844 32.8826C37.8666 33.645 37.5617 34.3725 37.0307 34.9198C36.4996 35.467 35.7815 35.7936 35.02 35.8342C34.5175 35.8053 34.0201 35.7176 33.538 35.5726L33.0025 35.4107C32.3448 35.1402 31.6455 34.9844 30.9352 34.9499C30.2494 34.9714 29.572 35.1061 28.9301 35.3485L28.3946 35.5104H28.295C27.9008 35.6748 27.4767 35.7554 27.0496 35.747H26.9375C26.1693 35.7188 25.4407 35.3994 24.8994 34.8535C24.3582 34.3077 24.045 33.5763 24.0233 32.8079C24.0485 32.4412 24.1414 32.0822 24.2973 31.7493C24.4107 31.428 24.5568 31.1192 24.7332 30.8278L28.021 25.2609C28.2867 24.6751 28.6992 24.1679 29.2184 23.7882C29.7377 23.4086 30.3462 23.1695 30.985 23.094C31.6136 23.1763 32.211 23.4173 32.7208 23.7942C33.2306 24.1711 33.6361 24.6716 33.8992 25.2485L33.949 25.2609Z" fill="white"/>
</g>
<defs>
<clipPath id="clip0_1_526">
<rect width="60.6" height="58.1591" fill="white" transform="translate(0.635193 0.0794067)"/>
</clipPath>
</defs>
</svg>
