<svg width="22" height="23" viewBox="0 0 22 23" fill="none" xmlns="http://www.w3.org/2000/svg">
<path d="M15.6496 0.860107H6.35044C4.6662 0.860107 3.05094 1.52917 1.86 2.72011C0.669062 3.91105 0 5.52631 0 7.21055L0 16.5097C0 18.1939 0.669062 19.8092 1.86 21.0001C3.05094 22.191 4.6662 22.8601 6.35044 22.8601H15.6496C17.3338 22.8601 18.9491 22.191 20.14 21.0001C21.3309 19.8092 22 18.1939 22 16.5097V7.21055C22 5.52631 21.3309 3.91105 20.14 2.72011C18.9491 1.52917 17.3338 0.860107 15.6496 0.860107ZM19.9723 16.6731C19.9753 17.2283 19.8685 17.7787 19.6583 18.2927C19.4481 18.8066 19.1384 19.274 18.7472 19.668C18.3559 20.062 17.8907 20.3749 17.3783 20.5887C16.8659 20.8026 16.3162 20.9132 15.761 20.9141H6.23903C5.12014 20.9141 4.04708 20.4696 3.25591 19.6785C2.46473 18.8873 2.02026 17.8142 2.02026 16.6954V7.15855C2.01928 6.60426 2.12773 6.05523 2.3394 5.54294C2.55106 5.03066 2.86178 4.56519 3.25372 4.17325C3.64567 3.78131 4.11113 3.47059 4.62342 3.25893C5.1357 3.04726 5.68474 2.9388 6.23903 2.93978H15.761C16.3153 2.9388 16.8643 3.04726 17.3766 3.25893C17.8889 3.47059 18.3543 3.78131 18.7463 4.17325C19.1382 4.56519 19.4489 5.03066 19.6606 5.54294C19.8723 6.05523 19.9807 6.60426 19.9797 7.15855L19.9723 16.6731Z" fill="white"/>
<path d="M11 6.20776C9.87035 6.20776 8.76606 6.54275 7.82677 7.17036C6.88749 7.79796 6.15541 8.69001 5.72311 9.73368C5.2908 10.7774 5.17769 11.9258 5.39808 13.0337C5.61847 14.1417 6.16245 15.1594 6.96125 15.9582C7.76004 16.757 8.77776 17.301 9.88572 17.5214C10.9937 17.7418 12.1421 17.6287 13.1858 17.1964C14.2295 16.764 15.1215 16.032 15.7491 15.0927C16.3767 14.1534 16.7117 13.0491 16.7117 11.9194C16.7117 11.1694 16.564 10.4267 16.2769 9.73368C15.9899 9.04071 15.5692 8.41106 15.0388 7.88068C14.5084 7.3503 13.8788 6.92958 13.1858 6.64254C12.4928 6.3555 11.7501 6.20776 11 6.20776ZM11 15.6183C10.2655 15.6183 9.5475 15.4005 8.93679 14.9924C8.32607 14.5844 7.85008 14.0044 7.569 13.3258C7.28791 12.6472 7.21437 11.9005 7.35766 11.1801C7.50096 10.4597 7.85466 9.79797 8.37403 9.2786C8.8934 8.75923 9.55512 8.40554 10.2755 8.26224C10.9959 8.11895 11.7426 8.19249 12.4212 8.47357C13.0998 8.75465 13.6798 9.23065 14.0878 9.84137C14.4959 10.4521 14.7137 11.1701 14.7137 11.9046C14.7137 12.8895 14.3225 13.8341 13.626 14.5306C12.9295 15.227 11.985 15.6183 11 15.6183Z" fill="white"/>
<path d="M16.8974 7.32186C17.6316 7.32186 18.2269 6.72662 18.2269 5.99235C18.2269 5.25808 17.6316 4.66284 16.8974 4.66284C16.1631 4.66284 15.5679 5.25808 15.5679 5.99235C15.5679 6.72662 16.1631 7.32186 16.8974 7.32186Z" fill="white"/>
</svg>
