<svg width="23" height="23" viewBox="0 0 23 23" fill="none" xmlns="http://www.w3.org/2000/svg">
<g clip-path="url(#clip0_1_533)">
<path d="M11.2852 0.0489502C10.1544 0.057082 9.03629 0.287868 7.99469 0.728131C6.95309 1.16839 6.00841 1.80951 5.21459 2.61487C4.42077 3.42024 3.79335 4.37407 3.36817 5.42192C2.94299 6.46977 2.72836 7.5911 2.73655 8.72189C2.73313 9.95213 2.99044 11.1691 3.49153 12.2927C3.99261 13.4163 4.72609 14.4209 5.64365 15.2404C6.37234 15.9377 7.01874 16.7161 7.5702 17.5606L9.43461 20.7646C10.4497 22.5116 12.1138 22.5116 13.1358 20.7646L14.9864 17.5813C15.5415 16.7293 16.1926 15.9439 16.9268 15.2404C17.8438 14.422 18.577 13.4185 19.0781 12.2961C19.5792 11.1737 19.8367 9.95794 19.8339 8.7288C19.843 7.59743 19.629 6.47535 19.2042 5.42671C18.7795 4.37806 18.1522 3.42341 17.3583 2.61731C16.5644 1.81122 15.6194 1.16948 14.5773 0.728788C13.5353 0.288093 12.4166 0.0570793 11.2852 0.0489502ZM11.2852 12.8167C10.1864 12.8167 9.13256 12.3802 8.35557 11.6032C7.57858 10.8262 7.14208 9.77238 7.14208 8.67356C7.14208 7.57473 7.57858 6.52091 8.35557 5.74393C9.13256 4.96694 10.1864 4.53043 11.2852 4.53043C12.384 4.53043 13.4378 4.96694 14.2148 5.74393C14.9918 6.52091 15.4283 7.57473 15.4283 8.67356C15.4283 9.77238 14.9918 10.8262 14.2148 11.6032C13.4378 12.3802 12.384 12.8167 11.2852 12.8167Z" fill="#4D4751"/>
</g>
<defs>
<clipPath id="clip0_1_533">
<rect width="22" height="22" fill="white" transform="translate(0.285217 0.0489502)"/>
</clipPath>
</defs>
</svg>
