<svg width="232" height="233" viewBox="0 0 232 233" fill="none" xmlns="http://www.w3.org/2000/svg">
<path d="M0 8.8899C0 4.47162 3.58172 0.889893 8 0.889893H223.19C227.608 0.889893 231.19 4.47161 231.19 8.88989V232.08H0V8.8899Z" fill="#E6E4E9"/>
<g clip-path="url(#clip0_1_172)">
<rect width="120" height="120" transform="translate(55.5901 56.4799)" fill="#E6E4E9"/>
<g clip-path="url(#clip1_1_172)">
<path d="M115.574 176.48C82.4882 176.48 55.5901 149.565 55.5901 116.496C55.5901 83.4273 82.5046 56.4799 115.574 56.4799C148.643 56.4799 175.557 83.3944 175.557 116.463C175.557 149.532 148.671 176.48 115.574 176.48ZM115.574 67.1619C105.823 67.1619 96.2908 70.0534 88.1832 75.4707C80.0756 80.888 73.7565 88.5879 70.025 97.5965C66.2934 106.605 65.3171 116.518 67.2194 126.082C69.1217 135.645 73.8172 144.43 80.7122 151.325C87.6071 158.22 96.3918 162.915 105.955 164.818C115.519 166.72 125.432 165.744 134.441 162.012C143.449 158.281 151.149 151.962 156.566 143.854C161.984 135.746 164.875 126.214 164.875 116.463C164.857 103.394 159.657 90.8642 150.415 81.6224C141.173 72.3805 128.644 67.1803 115.574 67.1619Z" fill="white"/>
<path d="M132.348 99.8734C136.401 99.8734 139.686 96.5882 139.686 92.5357C139.686 88.4832 136.401 85.198 132.348 85.198C128.296 85.198 125.011 88.4832 125.011 92.5357C125.011 96.5882 128.296 99.8734 132.348 99.8734Z" fill="white"/>
<path d="M98.8933 135.555C106.917 135.555 110.319 130.761 110.319 123.086C110.319 119.697 107.62 116.845 107.62 113.172C107.599 112.065 107.803 110.965 108.219 109.939C108.634 108.913 109.253 107.981 110.038 107.199C110.823 106.418 111.757 105.804 112.785 105.392C113.814 104.981 114.914 104.783 116.021 104.808C121.132 104.808 124.312 109.126 124.312 113.16C124.312 117.022 121.605 119.561 121.605 123.14C121.605 130.818 124.727 135.551 132.998 135.551C139.674 135.551 142.924 131.936 145.869 127.384C146.843 125.876 148.474 124.668 150.241 124.668C152.907 124.668 154.39 126.578 154.39 128.686C154.39 133.707 145.763 145.276 132.792 145.276C128.322 145.276 120.644 144.348 115.968 137.088C111.679 143.661 105.163 145.272 99.2302 145.272C85.6435 145.272 77.5046 133.255 77.5046 128.678C77.5034 128.146 77.6087 127.618 77.8143 127.127C78.02 126.637 78.3217 126.192 78.7019 125.819C79.0821 125.447 79.533 125.154 80.028 124.958C80.5231 124.763 81.0522 124.668 81.5844 124.68C82.4963 124.731 83.3818 125.005 84.1628 125.479C84.9437 125.952 85.5962 126.611 86.0626 127.396C88.9837 132.076 92.5334 135.555 98.8933 135.555Z" fill="white"/>
</g>
</g>
<defs>
<clipPath id="clip0_1_172">
<rect width="120" height="120" fill="white" transform="translate(55.5901 56.4799)"/>
</clipPath>
<clipPath id="clip1_1_172">
<rect width="120" height="120" fill="white" transform="translate(55.5901 56.4799)"/>
</clipPath>
</defs>
</svg>
