<svg width="26" height="23" viewBox="0 0 26 23" fill="none" xmlns="http://www.w3.org/2000/svg">
<path d="M23.9756 2.96292C23.3443 2.29721 22.5841 1.76704 21.7413 1.40474C20.8984 1.04243 19.9906 0.855585 19.0732 0.855585C18.1557 0.855585 17.2479 1.04243 16.4051 1.40474C15.5622 1.76704 14.802 2.29721 14.1707 2.96292C13.7089 3.44772 13.3175 3.99509 13.0081 4.58894C12.6983 3.99537 12.307 3.44806 11.8455 2.96292C11.2143 2.29721 10.454 1.76704 9.61118 1.40474C8.76833 1.04243 7.86051 0.855585 6.94309 0.855585C6.02567 0.855585 5.11785 1.04243 4.275 1.40474C3.43215 1.76704 2.67192 2.29721 2.04065 2.96292C0.736199 4.33634 0.00889587 6.15819 0.00889587 8.05236C0.00889587 9.94652 0.736199 11.7684 2.04065 13.1418L10.0163 21.4182C10.4026 21.8225 10.867 22.1444 11.3812 22.3643C11.8954 22.5841 12.4489 22.6975 13.0081 22.6975C13.5674 22.6975 14.1209 22.5841 14.6351 22.3643C15.1493 22.1444 15.6136 21.8225 16 21.4182L23.9756 13.1418C25.2801 11.7684 26.0074 9.94652 26.0074 8.05236C26.0074 6.15819 25.2801 4.33634 23.9756 2.96292Z" fill="#6504B5"/>
</svg>
