<svg width="21" height="45" viewBox="0 0 21 45" fill="none" xmlns="http://www.w3.org/2000/svg">
<g clip-path="url(#clip0_1_481)">
<path d="M17.6252 29.9923H13.2252C12.8716 29.9923 12.5325 30.1327 12.2824 30.3828C12.0324 30.6328 11.8919 30.972 11.8919 31.3256C11.8919 31.6792 12.0324 32.0184 12.2824 32.2684C12.5325 32.5185 12.8716 32.6589 13.2252 32.6589H19.2919C19.6455 32.6589 19.9847 32.5185 20.2347 32.2684C20.4848 32.0184 20.6252 31.6792 20.6252 31.3256V25.2589C20.6252 24.9053 20.4848 24.5662 20.2347 24.3161C19.9847 24.0661 19.6455 23.9256 19.2919 23.9256C18.9383 23.9256 18.5991 24.0661 18.3491 24.3161C18.0991 24.5662 17.9586 24.9053 17.9586 25.2589V29.6589C17.9586 29.7473 17.9235 29.8321 17.8609 29.8946C17.7984 29.9571 17.7136 29.9923 17.6252 29.9923Z" fill="white"/>
<path d="M3.62524 15.3256H8.02524C8.37887 15.3256 8.71801 15.1851 8.96805 14.9351C9.2181 14.685 9.35858 14.3459 9.35858 13.9923C9.35858 13.6386 9.2181 13.2995 8.96805 13.0495C8.71801 12.7994 8.37887 12.6589 8.02524 12.6589H1.95858C1.60496 12.6589 1.26582 12.7994 1.01577 13.0495C0.76572 13.2995 0.625244 13.6386 0.625244 13.9923L0.625244 20.0589C0.625244 20.4126 0.76572 20.7517 1.01577 21.0017C1.26582 21.2518 1.60496 21.3923 1.95858 21.3923C2.3122 21.3923 2.65134 21.2518 2.90139 21.0017C3.15144 20.7517 3.29191 20.4126 3.29191 20.0589V15.6589C3.29191 15.5705 3.32703 15.4857 3.38954 15.4232C3.45205 15.3607 3.53684 15.3256 3.62524 15.3256Z" fill="white"/>
<path d="M17.9586 15.6589V20.0589C17.9586 20.4126 18.0991 20.7517 18.3491 21.0017C18.5991 21.2518 18.9383 21.3923 19.2919 21.3923C19.6455 21.3923 19.9847 21.2518 20.2347 21.0017C20.4848 20.7517 20.6252 20.4126 20.6252 20.0589V13.9923C20.6252 13.6386 20.4848 13.2995 20.2347 13.0495C19.9847 12.7994 19.6455 12.6589 19.2919 12.6589H13.2252C12.8716 12.6589 12.5325 12.7994 12.2824 13.0495C12.0324 13.2995 11.8919 13.6386 11.8919 13.9923C11.8919 14.3459 12.0324 14.685 12.2824 14.9351C12.5325 15.1851 12.8716 15.3256 13.2252 15.3256H17.6252C17.7136 15.3256 17.7984 15.3607 17.8609 15.4232C17.9235 15.4857 17.9586 15.5705 17.9586 15.6589Z" fill="white"/>
<path d="M3.29191 29.6589V25.2589C3.29191 24.9053 3.15144 24.5662 2.90139 24.3161C2.65134 24.0661 2.3122 23.9256 1.95858 23.9256C1.60496 23.9256 1.26582 24.0661 1.01577 24.3161C0.76572 24.5662 0.625244 24.9053 0.625244 25.2589L0.625244 31.3256C0.625244 31.6792 0.76572 32.0184 1.01577 32.2684C1.26582 32.5185 1.60496 32.6589 1.95858 32.6589H8.02524C8.37887 32.6589 8.71801 32.5185 8.96805 32.2684C9.2181 32.0184 9.35858 31.6792 9.35858 31.3256C9.35858 30.972 9.2181 30.6328 8.96805 30.3828C8.71801 30.1327 8.37887 29.9923 8.02524 29.9923H3.62524C3.53684 29.9923 3.45205 29.9571 3.38954 29.8946C3.32703 29.8321 3.29191 29.7473 3.29191 29.6589Z" fill="white"/>
</g>
<defs>
<clipPath id="clip0_1_481">
<rect width="20" height="44" fill="white" transform="translate(0.625244 0.658936)"/>
</clipPath>
</defs>
</svg>
