<svg width="10" height="15" viewBox="0 0 10 15" fill="none" xmlns="http://www.w3.org/2000/svg">
<path d="M8.57163 8.81229C8.93217 8.44269 9.13397 7.94681 9.13397 7.43049C9.13397 6.91416 8.93217 6.41828 8.57163 6.04868L3.49933 0.976384C3.12196 0.633371 2.62702 0.448796 2.11719 0.460949C1.60737 0.473101 1.12179 0.681048 0.761186 1.04165C0.400583 1.40225 0.192636 1.88783 0.180484 2.39766C0.168332 2.90748 0.352907 3.40242 0.695919 3.7798L4.33524 7.43049L0.695919 11.0698C0.323409 11.4423 0.114136 11.9475 0.114136 12.4744C0.114136 13.0012 0.323409 13.5064 0.695919 13.8789C1.06843 14.2514 1.57366 14.4607 2.10047 14.4607C2.62728 14.4607 3.13251 14.2514 3.50502 13.8789L8.54888 8.84072L8.57163 8.81229Z" fill="#4D4751"/>
</svg>
