<svg width="22" height="19" viewBox="0 0 22 19" fill="none" xmlns="http://www.w3.org/2000/svg">
<path d="M19.7515 5.37407V5.95457C19.7515 11.9212 15.2104 18.7989 6.90715 18.7989C4.45793 18.7992 2.06028 18.0952 0 16.7709C0.358654 16.8109 0.719286 16.8305 1.08016 16.8297C3.1123 16.828 5.08468 16.142 6.67936 14.8824C5.73691 14.8647 4.82361 14.5526 4.06731 13.99C3.31101 13.4274 2.74957 12.6424 2.46159 11.7448C2.7402 11.7975 3.02306 11.8246 3.30661 11.8256C3.70881 11.8246 4.10909 11.7703 4.49699 11.664C3.47824 11.4578 2.5617 10.9067 1.90184 10.1037C1.24197 9.30057 0.879112 8.29457 0.874416 7.25517V7.21108C1.50786 7.56032 2.21609 7.75187 2.93921 7.76953C1.98415 7.13086 1.30821 6.15239 1.04886 5.0331C0.789516 3.91382 0.966237 2.73778 1.54309 1.74415C2.67514 3.13818 4.08771 4.27857 5.68908 5.09129C7.29045 5.904 9.04484 6.37087 10.8383 6.46158C10.6148 5.49405 10.7162 4.47983 11.1268 3.57569C11.5374 2.67155 12.2344 1.92783 13.1101 1.45948C13.9857 0.991139 14.9912 0.824252 15.9712 0.984616C16.9512 1.14498 17.8511 1.62367 18.5317 2.34669C19.54 2.14746 20.5068 1.77716 21.3901 1.25183C21.0539 2.29779 20.3488 3.18576 19.4061 3.75016C20.3027 3.63672 21.1771 3.38901 22 3.01536C21.3976 3.92973 20.636 4.72862 19.7515 5.37407Z" fill="white"/>
</svg>
