<svg width="15" height="23" viewBox="0 0 15 23" fill="none" xmlns="http://www.w3.org/2000/svg">
<g clip-path="url(#clip0_1_420)">
<g clip-path="url(#clip1_1_420)">
<path d="M9.15328 7.54925C8.77925 7.19634 8.28446 6.99976 7.77022 6.99976C7.25598 6.99976 6.76119 7.19634 6.38716 7.54925L1.36296 12.5734C1.1752 12.7574 1.02604 12.977 0.924212 13.2193C0.822382 13.4617 0.769931 13.7219 0.769931 13.9847C0.769931 14.2476 0.822382 14.5078 0.924212 14.7501C1.02604 14.9925 1.1752 15.2121 1.36296 15.396C1.54692 15.5838 1.7665 15.7329 2.00884 15.8348C2.25117 15.9366 2.51139 15.9891 2.77425 15.9891C3.03711 15.9891 3.29733 15.9366 3.53966 15.8348C3.782 15.7329 4.00158 15.5838 4.18554 15.396L7.79845 11.7831L11.3549 15.396C11.5389 15.5838 11.7584 15.7329 12.0008 15.8348C12.2431 15.9366 12.5033 15.9891 12.7662 15.9891C13.029 15.9891 13.2893 15.9366 13.5316 15.8348C13.7739 15.7329 13.9935 15.5838 14.1775 15.396C14.3652 15.2121 14.5144 14.9925 14.6162 14.7501C14.7181 14.5078 14.7705 14.2476 14.7705 13.9847C14.7705 13.7219 14.7181 13.4617 14.6162 13.2193C14.5144 12.977 14.3652 12.7574 14.1775 12.5734L9.15328 7.54925Z" fill="#6504B5"/>
</g>
</g>
<defs>
<clipPath id="clip0_1_420">
<rect width="14" height="22.39" fill="white" transform="matrix(-1 0 0 -1 14.77 22.69)"/>
</clipPath>
<clipPath id="clip1_1_420">
<rect width="14" height="8.9871" fill="white" transform="matrix(-1 0 0 -1 14.77 15.9885)"/>
</clipPath>
</defs>
</svg>
