<svg width="27" height="23" viewBox="0 0 27 23" fill="none" xmlns="http://www.w3.org/2000/svg">
<g clip-path="url(#clip0_1_947)">
<path d="M23.5721 3.9434C23.0189 3.36005 22.3562 2.89139 21.6219 2.56419C20.8875 2.237 20.0959 2.05768 19.2923 2.03648C18.4886 2.01527 17.6887 2.1526 16.9381 2.44062C16.1875 2.72864 15.5011 3.1617 14.9179 3.71508L14.6896 3.9434C14.2713 4.38271 13.9168 4.87857 13.6363 5.41645C13.3559 4.87857 13.0014 4.38271 12.5831 3.9434C12.0297 3.35786 11.3661 2.88734 10.6305 2.55884C9.89478 2.23033 9.10149 2.05031 8.29608 2.0291C7.49067 2.00789 6.689 2.1459 5.93706 2.43522C5.18511 2.72454 4.49769 3.15948 3.91422 3.71508L3.6859 3.9434C2.50416 5.18761 1.84528 6.83808 1.84528 8.55405C1.84528 10.27 2.50416 11.9205 3.6859 13.1647L10.9112 20.6625C11.5943 21.3828 12.5348 21.8035 13.5271 21.8324C14.5194 21.8614 15.4828 21.4964 16.2068 20.8172L16.3247 20.692L23.5721 13.1647C24.7918 11.9403 25.4767 10.2824 25.4767 8.55405C25.4767 6.82573 24.7918 5.16784 23.5721 3.9434Z" stroke="white" stroke-width="2.20957" stroke-miterlimit="10"/>
</g>
<defs>
<clipPath id="clip0_1_947">
<rect width="26" height="22" fill="white" transform="translate(0.654755 0.93103)"/>
</clipPath>
</defs>
</svg>
