<svg width="132" height="71" viewBox="0 0 132 71" fill="none" xmlns="http://www.w3.org/2000/svg">
<path d="M101.45 33.8001C101.45 33.2798 101.451 32.739 101.451 32.1812C101.451 29.0089 101.734 25.5171 101.734 22.4682C101.734 21.4095 100.943 20.3121 99.5893 20.3121C98.5294 20.3121 97.4732 21.1917 97.4732 22.4101C97.4732 24.1378 97.6039 26.0144 97.6837 28.929C96.9191 28.4644 95.8241 28.0845 94.0613 28.0845C88.7002 28.0845 85.8134 32.2829 85.8134 35.938C85.8134 37.1334 86.0106 38.1654 86.3554 39.0462C85.7868 39.5399 85.0596 39.9815 84.1292 39.9815C83.1988 39.9815 82.2635 39.2047 82.2635 36.2961C82.2635 35.6428 82.3676 33.0524 82.3676 32.105C82.3676 29.5751 80.5419 28.0761 77.8523 28.0761C75.1627 28.0761 73.5813 29.511 72.5505 31.1649C72.5771 30.7814 72.5952 30.4426 72.5952 30.1607C72.5952 28.7947 71.4458 28.0761 70.4174 28.0761C69.5233 28.0761 68.3316 28.7814 68.3316 30.2043C68.3316 32.0167 68.4755 33.8654 68.5372 35.6912C68.553 36.1376 68.5627 36.5829 68.5639 37.0293C68.4997 37.1031 68.4392 37.1805 68.3872 37.2616C67.4677 38.6845 66.4514 39.8133 64.3655 39.8133C61.7812 39.8133 60.8048 38.3336 60.8048 35.9344C60.8048 34.8164 61.6517 34.0227 61.6517 32.8152C61.6517 32.4946 61.5852 32.1704 61.463 31.8618C61.2506 32.0924 61.0119 32.2971 60.7515 32.4716C60.7116 32.4922 60.6741 32.5236 60.6366 32.5478C60.5979 32.5733 60.558 32.5975 60.518 32.6204C60.4745 32.6458 60.4273 32.6652 60.3825 32.6894C60.3039 32.733 60.2252 32.7729 60.1442 32.8116C60.0679 32.8479 59.9929 32.883 59.9155 32.9157C59.8744 32.9338 59.8344 32.9556 59.7921 32.9725C59.7376 32.9943 59.682 33.01 59.6263 33.0294C59.584 33.0451 59.5429 33.0633 59.5005 33.079C59.3831 33.1189 59.2634 33.1564 59.14 33.1758C59.0855 33.1843 59.0335 33.1867 58.9815 33.1867C58.9294 33.1867 58.8774 33.1843 58.823 33.1758C58.6996 33.1564 58.5798 33.1189 58.4624 33.079C58.4201 33.0645 58.3789 33.0451 58.3366 33.0306C58.2809 33.0112 58.2253 32.9955 58.1708 32.9737C58.1285 32.9568 58.0886 32.935 58.0474 32.9169C57.97 32.8842 57.895 32.8491 57.8187 32.8128C57.7377 32.7741 57.659 32.7342 57.5804 32.6906C57.5356 32.6664 57.4884 32.6471 57.4449 32.6216C57.405 32.5987 57.365 32.5733 57.3263 32.5491C57.2888 32.5249 57.2513 32.4922 57.2114 32.4728C56.9851 32.3216 56.7734 32.1462 56.581 31.9526C56.4879 32.2248 56.437 32.5164 56.437 32.8189C56.437 33.9671 57.2803 34.8575 57.2803 35.9162C57.2803 38.3154 56.2168 39.8133 53.7099 39.8133C51.7233 39.8133 50.6138 38.7195 49.7015 37.2616C49.6399 37.1653 49.5699 37.0746 49.4922 36.9906L49.4971 36.9882C52.4178 34.18 57.3299 28.8419 57.3299 24.237C57.3299 20.6618 55.3808 18.1839 51.9302 18.1839C50.2774 18.1839 48.9369 18.6509 47.9085 19.4083C46.8474 20.1899 46.1251 21.2849 45.7415 22.5045C45.5269 23.1869 45.4171 23.898 45.4161 24.6133C45.4161 26.2467 45.4874 27.8813 45.5298 29.5134C45.5334 29.6647 45.5395 29.8159 45.5431 29.9671C45.5685 31.1964 45.583 32.4269 45.5939 33.6573C45.5976 33.9707 45.6048 34.284 45.6072 34.5974C45.6133 35.5327 45.3277 35.6379 44.7482 36.3602C44.257 36.9712 43.5068 37.6089 43.0931 38.0251C42.6067 38.5139 42.274 39.4975 42.5341 40.2731C42.7906 41.0341 44.0344 41.6185 44.9248 40.9131C45.0362 40.8248 45.1414 40.7171 45.2176 40.6433C45.3665 40.4993 45.5334 40.3614 45.6883 40.2307C45.9424 41.7987 45.6835 43.6281 45.6387 45.2191C45.5794 47.3377 45.3471 48.2015 45.3471 50.3176C45.2612 51.6764 46.1009 52.9891 47.7173 52.8379C48.7977 52.7362 49.445 51.9087 49.4354 50.4265C49.4329 50.089 49.4741 45.1768 49.4583 41.339C50.5751 42.2028 52.0475 42.855 53.8152 42.855C55.5829 42.855 57.7038 42.3565 59.0456 40.2972C60.5059 42.5658 62.9052 42.8562 64.3026 42.8562C65.896 42.8562 67.2789 42.2972 68.3703 41.5241C68.5808 42.5235 69.4701 43.2034 70.4791 43.2034C71.539 43.2034 72.5952 42.3456 72.5952 41.0946C72.5952 40.6965 72.4488 38.9591 72.3642 37.3548C72.369 35.1661 74.6666 31.3271 76.7113 31.3271C77.7301 31.3271 78.3931 32.2127 78.3931 33.4662C78.3931 34.4292 78.2794 36.33 78.2794 37.5895C78.2794 40.5622 79.0295 43.1792 83.2278 43.1792C85.2254 43.1792 86.7837 42.2706 87.8847 41.3329C89.2483 42.6118 91.1261 43.1937 93.0304 43.1937C95.5482 43.1937 97.2445 42.0903 98.3322 41.0716C98.3286 41.224 98.3262 41.3704 98.3262 41.5047C98.3262 42.5319 98.873 43.2663 99.8264 43.2663C100.702 43.2663 101.858 42.5585 101.858 41.5241C101.858 41.3583 101.79 40.3759 101.708 39.0692C101.61 37.4963 101.491 35.4552 101.45 33.8061V33.8001ZM51.8164 21.5801C53.105 21.5801 53.6289 22.8699 53.6289 24.2358C53.6289 27.5848 51.174 30.7947 49.3773 32.8552C49.3882 32.4269 49.4015 31.9731 49.4136 31.5085C49.4922 28.635 49.589 25.3356 49.589 24.7646C49.589 23.6672 50.0076 22.7259 50.5388 22.1851C50.9126 21.8052 51.3579 21.5801 51.8164 21.5801ZM97.743 35.4262C97.7357 37.4588 96.2185 40.1158 93.4575 40.1158C91.7576 40.1158 90.0807 38.7764 90.0807 35.8968C90.0807 32.6422 92.3239 31.171 94.3637 31.171C95.9257 31.171 96.9275 31.7626 97.7418 32.6301C97.7418 32.8721 97.7442 33.1177 97.7442 33.3718V35.4274L97.743 35.4262ZM8.99447 27.58C6.94369 27.58 5.42406 28.2951 4.3291 29.1142C4.05082 28.1015 3.07322 27.5715 2.18153 27.5715C1.28983 27.5715 0.0484759 28.2926 0.0484759 29.7481C0.0484759 31.0609 0.329173 34.6543 0.329173 39.414C0.329173 44.1738 0.036377 47.3364 0.036377 49.1948C0.036377 50.4665 0.71392 51.3763 1.89478 51.3763C2.98006 51.3763 4.41016 50.4991 4.41016 49.219C4.41016 48.7508 4.21295 45.7781 4.14036 42.0371C5.95883 42.8332 8.02171 43.2397 10.7125 42.7848C13.1021 42.3807 14.9169 40.1738 14.9169 40.1738C15.9659 38.8067 16.3797 36.7716 16.3797 34.9967C16.3797 29.7663 12.7343 27.58 8.99568 27.58H8.99447ZM7.63212 39.7346C6.38351 39.7346 5.04294 39.3063 4.11737 38.3372C4.12584 37.3838 4.14398 36.4836 4.16818 35.65C4.17181 35.6161 4.17423 35.5786 4.17423 35.5363C4.17423 33.4553 5.72774 30.7233 8.55891 30.7233C10.2987 30.7233 12.0132 32.0929 12.0132 35.0402C12.0132 38.3711 9.7192 39.7346 7.63212 39.7346Z" fill="#6504B5"/>
<path d="M39.6389 34.2756C39.6389 33.8376 39.6437 33.3887 39.6437 32.9338V32.8031C39.6437 32.1365 39.6558 31.4601 39.6764 30.7838C41.0617 30.8044 42.0792 30.8383 42.8487 30.8383C43.1197 30.8383 43.4972 30.7439 43.8263 30.5309C44.2111 30.2817 44.5305 29.8691 44.5305 29.2206C44.5305 28.2672 43.8614 27.5933 42.8076 27.5933C41.836 27.5933 40.8778 27.6187 39.8046 27.6393C39.8518 26.6472 39.8966 25.6926 39.9268 24.7912C39.9462 24.1983 39.9607 23.6236 39.9607 23.0913C39.9607 21.954 39.0726 20.905 37.7393 20.905C36.8839 20.905 35.6801 21.5535 35.6014 22.9945C35.599 23.0429 35.5869 23.0852 35.5869 23.1348C35.5869 23.4845 35.6655 24.9424 35.7406 26.6193C35.7502 26.946 35.7587 27.2799 35.7648 27.6248C35.311 27.609 34.2778 27.5945 33.8531 27.5945C33.1707 27.5945 32.1593 28.0277 32.1593 29.24C32.1593 30.2563 33.0691 30.8383 33.8604 30.8383C34.1979 30.8383 35.23 30.8189 35.7914 30.7995C35.7865 31.9223 35.766 32.9532 35.7381 33.8945C35.7127 34.301 35.6861 34.716 35.6619 35.1201C35.645 35.7057 35.6232 36.3772 35.6123 37.0087C35.5518 38.2755 35.4986 40.042 35.4986 40.8248C35.4986 42.0964 36.0406 43.0062 37.7998 42.9602C39.0835 42.9264 39.8724 41.9609 39.8724 40.849C39.8724 40.5501 39.7937 38.4848 39.7175 36.601C39.6885 35.8969 39.6606 35.114 39.6364 34.2744L39.6389 34.2756ZM66.4551 26.3701C66.4551 27.6364 65.4286 28.6629 64.1623 28.6629C62.896 28.6629 61.8695 27.6364 61.8695 26.3701C61.8695 25.1038 62.896 24.0773 64.1623 24.0773C65.4286 24.0773 66.4551 25.1038 66.4551 26.3701ZM31.7479 38.1981C31.1599 38.1981 30.4509 38.7377 30.4497 38.7377C29.9052 39.1515 29.2991 39.5048 28.6433 39.708C27.967 39.9186 27.2822 39.8847 26.584 39.8847C24.1691 39.8847 23.0765 38.9748 22.6023 37.6524C28.2271 37.6076 31.0837 35.3802 31.0837 32.001C31.0837 29.3985 28.8018 27.5558 25.5605 27.5558C21.3585 27.5558 17.8691 30.7269 17.8691 35.7456C17.8691 36.5381 17.955 37.2689 18.1196 37.9392C18.1196 37.9392 18.4184 39.2688 19.2303 40.3069C20.5866 42.071 22.9386 43.0098 26.2114 43.0098C28.0359 43.0098 29.9657 42.5525 31.593 41.7274C32.227 41.4055 32.9687 41.0486 33.1974 40.3239C33.3643 39.7939 33.2796 39.1684 32.9263 38.7304C32.6384 38.3735 32.2004 38.2005 31.7467 38.2005L31.7479 38.1981ZM25.5084 30.3362C26.97 30.3362 27.4721 31.488 27.4721 32.1958C27.4721 33.9054 26.359 34.9955 22.2611 35.0596C22.2732 31.3924 24.2792 30.3362 25.5084 30.3362ZM128.759 27.6344C126.536 27.6344 124.821 29.194 123.822 30.7112C123.849 30.3289 123.867 29.9925 123.867 29.7118C123.867 28.3459 122.718 27.6272 121.691 27.6272C120.796 27.6272 119.605 28.3326 119.605 29.7554C119.605 31.0379 119.879 33.0342 119.879 35.1019C119.879 35.4456 119.87 35.7734 119.858 36.0941C119.809 37.4975 119.737 38.3058 119.614 39.7734C119.602 40.0516 119.594 40.3311 119.594 40.6167C119.594 41.8604 120.598 42.7485 121.754 42.7485C122.815 42.7485 123.87 41.8907 123.87 40.6397C123.87 40.2392 123.722 38.486 123.637 36.8732C123.657 34.3083 126.285 31.1928 127.582 31.1928C128.435 31.1928 128.246 32.37 129.848 32.37C130.91 32.37 131.903 31.517 131.903 30.2999C131.903 29.2497 131.192 27.632 128.761 27.632L128.759 27.6344ZM116.875 38.1061C116.287 38.1061 115.578 38.6457 115.577 38.6457C115.033 39.0595 114.426 39.4128 113.771 39.6161C113.094 39.8266 112.409 39.7927 111.711 39.7927C109.296 39.7927 108.204 38.8829 107.73 37.5605C113.354 37.5157 116.211 35.2883 116.211 31.909C116.211 29.3065 113.929 27.4639 110.688 27.4639C106.486 27.4639 102.996 30.635 102.996 35.6524C102.996 36.4449 103.082 37.1757 103.247 37.846C103.247 37.846 103.546 39.1757 104.358 40.2138C105.714 41.9778 108.066 42.9167 111.339 42.9167C113.163 42.9167 115.093 42.4593 116.72 41.6342C117.354 41.3124 118.096 40.9554 118.325 40.2307C118.492 39.7008 118.407 39.0753 118.054 38.6373C117.766 38.2803 117.328 38.1073 116.874 38.1073L116.875 38.1061ZM110.636 30.2442C112.097 30.2442 112.599 31.396 112.599 32.1038C112.599 33.8134 111.486 34.9035 107.388 34.9676C107.4 31.3004 109.406 30.2442 110.636 30.2442Z" fill="#6504B5"/>
<path d="M62.1077 31.5219C62.0509 31.3803 61.9795 31.2436 61.8924 31.1177C61.6262 30.7306 61.2015 30.4959 60.7393 30.4221C60.6329 30.4051 60.5228 30.3954 60.4102 30.3942C60.0751 30.3906 59.7291 30.462 59.4496 30.6302C59.3552 30.687 59.2693 30.7524 59.1907 30.8274C59.112 30.9012 59.0418 30.9847 58.9801 31.073C58.8567 30.8939 58.6967 30.7429 58.5107 30.6302C58.4175 30.5745 58.3171 30.5285 58.2119 30.4934C58.0013 30.4233 57.7739 30.3918 57.55 30.3942C57.4387 30.3954 57.3274 30.4051 57.2209 30.4221C56.7588 30.4959 56.3353 30.7306 56.0679 31.1177C55.9808 31.2436 55.9094 31.3803 55.8526 31.5219C55.5573 32.2502 55.682 33.0705 56.1248 33.7723C56.4006 34.209 56.7805 34.5708 57.2089 34.8563C57.2488 34.8769 57.2863 34.9084 57.3238 34.9326C57.3625 34.958 57.4024 34.9822 57.4424 35.0052C57.4859 35.0306 57.5331 35.0499 57.5779 35.0741C57.6565 35.1177 57.7364 35.1576 57.8162 35.1963C57.8924 35.2326 57.9675 35.2677 58.0449 35.3004C58.086 35.3185 58.126 35.3403 58.1683 35.3572C58.2227 35.379 58.2784 35.3947 58.3341 35.4141C58.3764 35.4298 58.4175 35.448 58.4599 35.4625C58.5785 35.5024 58.697 35.5399 58.8204 35.5593C58.8749 35.5678 58.9269 35.5702 58.9789 35.5702C59.031 35.5702 59.083 35.5678 59.1374 35.5593C59.2608 35.5399 59.3806 35.5024 59.498 35.4625C59.5403 35.448 59.5815 35.4286 59.6238 35.4129C59.6795 35.3935 59.7351 35.3778 59.7896 35.356C59.8319 35.3391 59.8718 35.3173 59.913 35.2992C59.9904 35.2665 60.0654 35.2314 60.1416 35.1951C60.2227 35.1564 60.3014 35.1165 60.38 35.0729C60.4248 35.0487 60.472 35.0293 60.5155 35.0039C60.5554 34.981 60.5954 34.9555 60.6341 34.9313C60.6716 34.9071 60.7091 34.8745 60.749 34.8551C61.1761 34.5684 61.5572 34.2066 61.8331 33.7711C62.2759 33.0693 62.4005 32.249 62.1053 31.5206L62.1077 31.5219Z" fill="#C22A22"/>
<path d="M58.1878 48.8633C58.1878 49.2166 58.068 49.4889 57.826 49.6788C57.5852 49.8688 57.2404 49.9643 56.7915 49.9643H56.3814V51.3364H55.9761V47.8482H56.8799C57.7522 47.8482 58.1878 48.187 58.1878 48.8645V48.8633ZM56.3814 49.6147H56.7468C57.1061 49.6147 57.3662 49.5566 57.5272 49.4405C57.6881 49.3243 57.7679 49.138 57.7679 48.8815C57.7679 48.6504 57.6917 48.4798 57.5417 48.3661C57.3904 48.2535 57.1545 48.1967 56.8351 48.1967H56.3814V49.6135V49.6147ZM62.4357 49.5856C62.4357 50.1446 62.2942 50.5826 62.0123 50.9032C61.7304 51.2226 61.3371 51.3823 60.835 51.3823C60.3329 51.3823 59.9252 51.2251 59.6457 50.9117C59.3662 50.5971 59.2271 50.1543 59.2271 49.5808C59.2271 49.0073 59.3674 48.573 59.6469 48.2608C59.9264 47.9474 60.3245 47.7914 60.8399 47.7914C61.3553 47.7914 61.7328 47.9499 62.0135 48.2693C62.2954 48.5875 62.4357 49.0267 62.4357 49.5869V49.5856ZM59.6554 49.5856C59.6554 50.0575 59.7558 50.4168 59.9566 50.66C60.1575 50.9044 60.4503 51.0266 60.8338 51.0266C61.2174 51.0266 61.5126 50.9056 61.7098 50.6612C61.907 50.4181 62.005 50.0587 62.005 49.5856C62.005 49.1126 61.907 48.7605 61.7098 48.5185C61.5138 48.2753 61.2234 48.1543 60.8374 48.1543C60.4515 48.1543 60.1575 48.2765 59.9554 48.5209C59.7546 48.7653 59.6542 49.121 59.6542 49.5869L59.6554 49.5856ZM66.7466 51.3352H66.3449L65.6408 48.9988C65.6081 48.896 65.5694 48.7653 65.5282 48.608C65.4871 48.4508 65.4653 48.3564 65.4641 48.3237C65.429 48.5342 65.3734 48.7641 65.2971 49.0134L64.6148 51.3352H64.2143L63.2863 47.847H63.7158L64.2675 50.0019C64.3437 50.3043 64.3994 50.5778 64.4345 50.8222C64.4768 50.5306 64.541 50.2463 64.6256 49.968L65.2512 47.847H65.6807L66.3364 49.9873C66.4127 50.2342 66.4768 50.5124 66.53 50.8222C66.5603 50.5959 66.6171 50.3201 66.7018 49.9958L67.2511 47.8458H67.6806L66.7478 51.334L66.7466 51.3352ZM70.6594 51.3352H68.7151V47.847H70.6594V48.2076H69.1204V49.3316H70.5662V49.6897H69.1204V50.9734H70.6594V51.3364V51.3352ZM72.3279 49.8845V51.3352H71.9225V47.847H72.8796C73.3079 47.847 73.6237 47.9293 73.8281 48.0926C74.0326 48.2572 74.1342 48.5028 74.1342 48.8319C74.1342 49.2941 73.9007 49.605 73.4325 49.7671L74.3799 51.3352H73.9007L73.0562 49.8845H72.3279ZM72.3279 49.536H72.8844C73.1712 49.536 73.3805 49.4792 73.5148 49.3654C73.6479 49.2517 73.7156 49.0811 73.7156 48.8537C73.7156 48.6262 73.6479 48.4568 73.5111 48.3552C73.3756 48.2535 73.1566 48.2027 72.8566 48.2027H72.3291V49.5373L72.3279 49.536ZM77.3768 51.3352H75.4325V47.847H77.3768V48.2076H75.8378V49.3316H77.2836V49.6897H75.8378V50.9734H77.3768V51.3364V51.3352ZM81.4239 49.5578C81.4239 50.1337 81.2678 50.5741 80.9544 50.8778C80.6423 51.1827 80.1922 51.3352 79.6054 51.3352H78.6387V47.847H79.707C80.2503 47.847 80.6713 47.997 80.9714 48.2983C81.2714 48.5996 81.4227 49.0194 81.4227 49.559L81.4239 49.5578ZM80.9944 49.5723C80.9944 49.1174 80.8806 48.775 80.652 48.5439C80.4233 48.3128 80.0845 48.1979 79.6344 48.1979H79.0452V50.9843H79.5389C80.0228 50.9843 80.3858 50.8657 80.629 50.6274C80.8722 50.389 80.9944 50.0369 80.9944 49.5711V49.5723ZM84.4486 47.8458H85.4335C85.8969 47.8458 86.2308 47.9148 86.4377 48.0539C86.6446 48.1918 86.7474 48.4108 86.7474 48.7097C86.7474 48.9166 86.6894 49.0872 86.5744 49.2215C86.4583 49.3558 86.2913 49.4429 86.0699 49.4828V49.5058C86.5998 49.5965 86.8648 49.8748 86.8648 50.3406C86.8648 50.6528 86.7595 50.896 86.549 51.0702C86.3385 51.2456 86.0433 51.3327 85.6646 51.3327H84.4474V47.8446L84.4486 47.8458ZM84.854 49.34H85.5218C85.8086 49.34 86.0142 49.2953 86.1401 49.2057C86.2659 49.1162 86.3288 48.965 86.3288 48.7508C86.3288 48.5548 86.2586 48.4145 86.1183 48.3274C85.978 48.2402 85.7553 48.1979 85.4504 48.1979H84.854V49.3412V49.34ZM84.854 49.6837V50.9891H85.5823C85.8642 50.9891 86.0759 50.9347 86.2175 50.8246C86.3603 50.7157 86.4317 50.5451 86.4317 50.3128C86.4317 50.0974 86.3591 49.9377 86.2127 49.8361C86.0675 49.7345 85.8461 49.6824 85.5484 49.6824H84.854V49.6837ZM88.9918 49.5905L89.9222 47.847H90.3614L89.1975 49.9825V51.3352H88.7873V50.0019L87.6258 47.847H88.0699L88.993 49.5905H88.9918Z" fill="#555557"/>
<path d="M93.0413 46.3455H123.784V52.8282H93.0413V46.3455Z" fill="white"/>
<path d="M99.3157 51.9921V46.5548H93.2505V52.6201H123.574V51.9921H99.3145H99.3157ZM98.6878 51.9921H93.8772V47.1816H98.6878V51.9921Z" fill="#C22A22"/>
<path d="M94.0867 47.3909H95.5506V48.8549H94.0867V47.3909ZM94.0867 50.3188H95.5506V51.7828H94.0867V50.3188ZM95.5506 48.8549H97.0146V50.3188H95.5506V48.8549ZM97.0146 47.3909H98.4786V48.8549H97.0146V47.3909ZM97.0146 50.3188H98.4786V51.7828H97.0146V50.3188Z" fill="#C22A22"/>
<path d="M99.311 46.5548H123.574V51.9921H99.311V46.5548Z" fill="black"/>
<path d="M114.761 47.7732C114.761 47.7103 114.795 47.6764 114.858 47.6764H115.334C115.382 47.6764 115.421 47.6958 115.45 47.7393L116.623 49.5143C116.735 49.6836 116.856 49.8639 116.983 50.072C117.002 50.1059 117.036 50.1011 117.036 50.0623C117.031 49.8639 117.022 49.5675 117.022 49.3691V47.7732C117.022 47.7103 117.055 47.6764 117.118 47.6764H117.507C117.57 47.6764 117.603 47.7103 117.603 47.7732V50.9734C117.603 51.0363 117.57 51.0702 117.507 51.0702H117.046C116.997 51.0702 116.959 51.0508 116.93 51.0073L115.741 49.2324C115.625 49.063 115.509 48.8827 115.382 48.6746C115.363 48.6407 115.329 48.6456 115.329 48.6843C115.334 48.8827 115.343 49.1791 115.343 49.3775V50.9734C115.343 51.0363 115.31 51.0702 115.247 51.0702H114.858C114.795 51.0702 114.761 51.0363 114.761 50.9734V47.7732ZM112.759 47.6764H113.152C113.165 47.6764 113.178 47.6789 113.189 47.6838C113.201 47.6887 113.212 47.6958 113.221 47.7048C113.23 47.7138 113.237 47.7244 113.242 47.7362C113.247 47.7479 113.249 47.7605 113.249 47.7732V50.9734C113.249 50.9991 113.239 51.0237 113.221 51.0418C113.203 51.06 113.178 51.0702 113.152 51.0702H112.759C112.733 51.0702 112.709 51.06 112.691 51.0418C112.672 51.0237 112.662 50.9991 112.662 50.9734V47.7732C112.662 47.7605 112.665 47.7479 112.67 47.7362C112.674 47.7244 112.682 47.7138 112.691 47.7048C112.7 47.6958 112.71 47.6887 112.722 47.6838C112.734 47.6789 112.746 47.6764 112.759 47.6764ZM111.416 50.5814C111.295 50.5814 111.189 50.5814 111.126 50.562C111.058 50.5427 111.019 50.504 110.98 50.4459L110.587 49.8639C110.568 49.8349 110.578 49.8155 110.611 49.801C110.728 49.7526 110.834 49.68 110.922 49.5929C111.121 49.3945 111.243 49.0981 111.243 48.7883C111.243 48.4786 111.127 48.1725 110.922 47.9741C110.729 47.7805 110.5 47.6788 110.118 47.6788H108.785C108.722 47.6788 108.688 47.7127 108.688 47.7756V50.9758C108.688 51.0387 108.722 51.0726 108.785 51.0726H109.183C109.245 51.0726 109.279 51.0387 109.279 50.9758V49.9377C109.279 49.9087 109.299 49.8893 109.328 49.8893H109.823C109.886 49.8893 109.934 49.9135 109.968 49.9668L110.521 50.7907C110.719 51.0859 110.914 51.1452 111.224 51.1452C111.272 51.1452 111.403 51.1452 111.446 51.1307C111.495 51.1162 111.514 51.0823 111.514 51.0387V50.6794C111.514 50.6165 111.48 50.5826 111.417 50.5826L111.416 50.5814ZM110.481 49.1755C110.379 49.2674 110.268 49.3158 110.083 49.3158H109.327C109.298 49.3158 109.278 49.2965 109.278 49.2674V48.2971C109.278 48.2681 109.298 48.2487 109.327 48.2487H110.083C110.267 48.2487 110.379 48.2971 110.476 48.3891C110.578 48.481 110.631 48.631 110.631 48.7871C110.631 48.9323 110.578 49.0823 110.481 49.1755ZM104.86 50.7411C104.613 50.4991 104.491 50.1882 104.491 49.6982V47.7732C104.491 47.7103 104.524 47.6764 104.587 47.6764L104.995 47.6813C105.058 47.6813 105.092 47.7151 105.092 47.7781V49.7756C105.092 50.0515 105.164 50.2172 105.305 50.3672C105.44 50.5173 105.664 50.585 105.882 50.585C106.1 50.585 106.338 50.5173 106.478 50.3672C106.614 50.2172 106.682 50.0527 106.682 49.7756V47.7732C106.682 47.7103 106.716 47.6764 106.778 47.6764H107.186C107.249 47.6764 107.283 47.7103 107.283 47.7732V49.7224C107.283 50.2075 107.162 50.4979 106.919 50.7459C106.667 51.0024 106.279 51.144 105.881 51.144C105.483 51.144 105.105 50.994 104.857 50.7411M103.007 47.9922C102.794 47.7841 102.551 47.6776 102.14 47.6776H100.744C100.681 47.6776 100.647 47.7115 100.647 47.7744V50.9746C100.647 51.0375 100.681 51.0714 100.744 51.0714H101.142C101.204 51.0714 101.238 51.0375 101.238 50.9746V50.0926C101.238 50.0636 101.258 50.0442 101.287 50.0442H102.12C102.538 50.0442 102.794 49.9377 103.002 49.7296C103.215 49.5167 103.347 49.2009 103.347 48.867C103.347 48.533 103.221 48.2076 103.007 47.9946V47.9922ZM102.57 49.311C102.459 49.4175 102.328 49.4707 102.114 49.4707H101.286C101.257 49.4707 101.237 49.4513 101.237 49.4223V48.2971C101.237 48.2681 101.257 48.2487 101.286 48.2487H102.114C102.327 48.2487 102.459 48.3068 102.57 48.4084C102.687 48.5149 102.745 48.6891 102.745 48.8645C102.745 49.04 102.687 49.2045 102.57 49.311ZM122.03 50.9589L120.702 47.749C120.683 47.6958 120.644 47.6764 120.591 47.6764H120.086C120.033 47.6764 119.994 47.7055 119.975 47.7539L118.661 50.9589C118.632 51.0266 118.666 51.0702 118.738 51.0702H119.165C119.219 51.0702 119.257 51.0412 119.277 50.9928L119.533 50.3576C119.548 50.3188 119.572 50.3043 119.611 50.3043H121.065C121.104 50.3043 121.128 50.3188 121.142 50.3576L121.404 50.9928C121.423 51.0412 121.462 51.0702 121.515 51.0702H121.957C122.029 51.0702 122.058 51.0266 122.029 50.9589H122.03ZM120.823 49.7369H119.848C119.804 49.7369 119.78 49.7127 119.799 49.6691L120.017 49.1017C120.114 48.8549 120.201 48.6262 120.298 48.3697C120.317 48.3165 120.346 48.3165 120.366 48.3697C120.462 48.6262 120.55 48.8549 120.646 49.1017L120.864 49.6691C120.884 49.7127 120.864 49.7369 120.821 49.7369H120.823Z" fill="white"/>
<path d="M122.093 47.4236C121.786 47.4236 121.538 47.6704 121.538 47.9789C121.538 48.0519 121.552 48.1243 121.58 48.1918C121.608 48.2593 121.648 48.3207 121.7 48.3723C121.752 48.4239 121.813 48.4648 121.881 48.4926C121.948 48.5204 122.02 48.5346 122.093 48.5342C122.402 48.5342 122.649 48.2862 122.649 47.9789C122.649 47.6716 122.402 47.4236 122.093 47.4236ZM122.093 48.4411C121.841 48.4411 121.637 48.2269 121.637 47.9789C121.637 47.7309 121.841 47.5228 122.093 47.5228C122.346 47.5228 122.556 47.726 122.556 47.9789C122.556 48.2318 122.346 48.4411 122.093 48.4411Z" fill="white"/>
<path d="M122.27 48.1495L122.203 48.0503C122.286 48.0225 122.33 47.9462 122.33 47.8688C122.33 47.7647 122.259 47.6764 122.132 47.6764H121.885V48.2644H121.989V48.0612H122.089L122.193 48.2148C122.236 48.2814 122.27 48.2814 122.352 48.2753V48.1822C122.309 48.1822 122.298 48.1882 122.27 48.1495ZM122.127 47.9632H121.989V47.7768H122.127C122.171 47.7768 122.22 47.7986 122.22 47.87C122.22 47.9366 122.177 47.9632 122.127 47.9632Z" fill="white"/>
<path d="M128.173 41.4926C128.173 42.1823 127.724 42.7642 126.916 42.7642C126.108 42.7642 125.659 42.1823 125.659 41.4926C125.659 40.803 126.111 40.221 126.916 40.221C127.721 40.221 128.173 40.7994 128.173 41.4926ZM125.923 41.4854C125.923 42.0637 126.282 42.5235 126.916 42.5235C127.55 42.5235 127.912 42.0637 127.912 41.489C127.912 40.9143 127.55 40.4509 126.916 40.4509C126.282 40.4509 125.923 40.9107 125.923 41.4926V41.4854ZM127.156 41.6463C127.654 41.5628 127.602 40.8211 127.033 40.8211H126.434V42.1278H126.675V41.6753H126.902L127.263 42.1278H127.528V42.0794L127.156 41.6439V41.6475V41.6463ZM127.033 41.0474C127.33 41.0474 127.326 41.4684 127.026 41.4684H126.674V41.0474H127.033Z" fill="#6504B5"/>
</svg>
