<svg width="124" height="36" viewBox="0 0 124 36" fill="none" xmlns="http://www.w3.org/2000/svg">
<path d="M95.3016 16.3831C95.3016 15.8944 95.3028 15.3863 95.3028 14.8624C95.3028 11.8823 95.5687 8.60214 95.5687 5.73798C95.5687 4.74348 94.8254 3.71261 93.5536 3.71261C92.558 3.71261 91.5657 4.5389 91.5657 5.68342C91.5657 7.30645 91.6885 9.06927 91.7635 11.8073C91.0452 11.3708 90.0166 11.0139 88.3606 11.0139C83.3244 11.0139 80.6126 14.9579 80.6126 18.3914C80.6126 19.5144 80.7979 20.4839 81.1218 21.3113C80.5876 21.775 79.9045 22.1899 79.0305 22.1899C78.1565 22.1899 77.2779 21.4602 77.2779 18.7279C77.2779 18.1141 77.3756 15.6807 77.3756 14.7908C77.3756 12.4142 75.6605 11.006 73.1339 11.006C70.6073 11.006 69.1218 12.354 68.1535 13.9077C68.1785 13.5474 68.1955 13.2291 68.1955 12.9643C68.1955 11.6811 67.1158 11.006 66.1497 11.006C65.3098 11.006 64.1903 11.6686 64.1903 13.0052C64.1903 14.7078 64.3255 16.4445 64.3835 18.1596C64.3982 18.579 64.4073 18.9972 64.4085 19.4166C64.3482 19.486 64.2914 19.5587 64.2425 19.6348C63.3787 20.9715 62.424 22.0319 60.4646 22.0319C58.0369 22.0319 57.1196 20.6418 57.1196 18.388C57.1196 17.3378 57.9152 16.5922 57.9152 15.4579C57.9152 15.1568 57.8527 14.8522 57.7379 14.5623C57.5385 14.7789 57.3142 14.9712 57.0696 15.1352C57.0321 15.1545 56.9969 15.184 56.9617 15.2068C56.9253 15.2306 56.8878 15.2534 56.8503 15.275C56.8094 15.2988 56.765 15.317 56.723 15.3397C56.6491 15.3807 56.5752 15.4182 56.4991 15.4545C56.4275 15.4886 56.357 15.5216 56.2843 15.5523C56.2456 15.5693 56.2081 15.5898 56.1683 15.6057C56.1172 15.6262 56.0649 15.6409 56.0126 15.6591C55.9728 15.6739 55.9342 15.6909 55.8944 15.7057C55.7842 15.7432 55.6716 15.7785 55.5557 15.7966C55.5046 15.8046 55.4557 15.8069 55.4068 15.8069C55.358 15.8069 55.3091 15.8046 55.2579 15.7966C55.142 15.7785 55.0295 15.7432 54.9192 15.7057C54.8795 15.6921 54.8408 15.6739 54.801 15.6603C54.7488 15.6421 54.6965 15.6273 54.6453 15.6068C54.6055 15.5909 54.568 15.5705 54.5294 15.5534C54.4567 15.5227 54.3862 15.4898 54.3146 15.4557C54.2384 15.4193 54.1646 15.3818 54.0907 15.3409C54.0486 15.3181 54.0043 15.3 53.9634 15.2761C53.9259 15.2545 53.8884 15.2306 53.852 15.2079C53.8168 15.1852 53.7815 15.1545 53.744 15.1363C53.5315 14.9942 53.3326 14.8294 53.1519 14.6476C53.0644 14.9033 53.0166 15.1772 53.0166 15.4614C53.0166 16.54 53.8088 17.3765 53.8088 18.371C53.8088 20.6248 52.8098 22.0319 50.4548 22.0319C48.5885 22.0319 47.5463 21.0044 46.6893 19.6348C46.6314 19.5443 46.5656 19.4591 46.4927 19.3803L46.4972 19.378C49.2409 16.74 53.8554 11.7254 53.8554 7.39965C53.8554 4.04108 52.0244 1.71338 48.7829 1.71338C47.2303 1.71338 45.971 2.1521 45.0049 2.86359C44.0082 3.59782 43.3296 4.62641 42.9693 5.77208C42.7677 6.41314 42.6646 7.0811 42.6636 7.75312C42.6636 9.28749 42.7306 10.823 42.7704 12.3562C42.7738 12.4983 42.7795 12.6404 42.7829 12.7825C42.8068 13.9372 42.8204 15.0931 42.8307 16.249C42.8341 16.5434 42.8409 16.8377 42.8432 17.1321C42.8489 18.0107 42.5806 18.1096 42.0362 18.7881C41.5748 19.3621 40.8701 19.961 40.4814 20.352C40.0245 20.8112 39.7119 21.7352 39.9563 22.4638C40.1972 23.1787 41.3656 23.7276 42.2021 23.065C42.3067 22.982 42.4056 22.8809 42.4772 22.8116C42.617 22.6763 42.7738 22.5467 42.9193 22.424C43.158 23.897 42.9148 25.6155 42.8727 27.1101C42.817 29.1002 42.5988 29.9117 42.5988 31.8996C42.5181 33.176 43.3069 34.4091 44.8253 34.2671C45.8403 34.1716 46.4484 33.3942 46.4393 32.0019C46.437 31.6848 46.4757 27.0703 46.4609 23.4651C47.5099 24.2766 48.8931 24.8892 50.5537 24.8892C52.2142 24.8892 54.2066 24.4209 55.4671 22.4865C56.8389 24.6176 59.0927 24.8904 60.4055 24.8904C61.9023 24.8904 63.2014 24.3653 64.2266 23.639C64.4244 24.5778 65.2598 25.2166 66.2077 25.2166C67.2033 25.2166 68.1955 24.4107 68.1955 23.2355C68.1955 22.8616 68.058 21.2295 67.9785 19.7224C67.983 17.6663 70.1414 14.06 72.0622 14.06C73.0192 14.06 73.642 14.8919 73.642 16.0694C73.642 16.9741 73.5352 18.7597 73.5352 19.9429C73.5352 22.7354 74.2398 25.1938 78.1837 25.1938C80.0602 25.1938 81.5241 24.3403 82.5584 23.4594C83.8393 24.6608 85.6033 25.2075 87.3922 25.2075C89.7574 25.2075 91.3509 24.1709 92.3727 23.2139C92.3693 23.3571 92.367 23.4946 92.367 23.6208C92.367 24.5858 92.8807 25.2757 93.7764 25.2757C94.5992 25.2757 95.6847 24.6108 95.6847 23.639C95.6847 23.4833 95.621 22.5604 95.5437 21.3329C95.4517 19.8553 95.3403 17.9379 95.3016 16.3888V16.3831ZM48.6761 4.90374C49.8865 4.90374 50.3786 6.11532 50.3786 7.39851C50.3786 10.5445 48.0725 13.5599 46.3847 15.4955C46.395 15.0931 46.4075 14.6669 46.4188 14.2304C46.4927 11.5311 46.5836 8.43166 46.5836 7.89519C46.5836 6.86432 46.9769 5.98007 47.4758 5.47202C47.827 5.11514 48.2453 4.90374 48.6761 4.90374ZM91.8192 17.9107C91.8124 19.8201 90.3871 22.316 87.7934 22.316C86.1966 22.316 84.6213 21.0578 84.6213 18.3528C84.6213 15.2954 86.7285 13.9133 88.6447 13.9133C90.1121 13.9133 91.0531 14.4691 91.818 15.284C91.818 15.5114 91.8203 15.7421 91.8203 15.9808V17.9118L91.8192 17.9107ZM8.44936 10.54C6.52287 10.54 5.09533 11.2117 4.06674 11.9812C3.80533 11.0299 2.88698 10.532 2.04932 10.532C1.21167 10.532 0.0455454 11.2094 0.0455454 12.5767C0.0455454 13.8099 0.30923 17.1855 0.30923 21.6568C0.30923 26.1281 0.0341797 29.0991 0.0341797 30.8449C0.0341797 32.0394 0.67066 32.8941 1.77995 32.8941C2.79946 32.8941 4.14289 32.0701 4.14289 30.8676C4.14289 30.4277 3.95763 27.6352 3.88943 24.1209C5.5977 24.8688 7.53555 25.2506 10.0633 24.8233C12.308 24.4437 14.0129 22.3706 14.0129 22.3706C14.9983 21.0862 15.387 19.1745 15.387 17.5072C15.387 12.5938 11.9625 10.54 8.45049 10.54H8.44936ZM7.16958 21.958C5.99664 21.958 4.73731 21.5557 3.86784 20.6453C3.87579 19.7496 3.89284 18.904 3.91557 18.1209C3.91898 18.0891 3.92126 18.0539 3.92126 18.0141C3.92126 16.0592 5.38061 13.4928 8.04019 13.4928C9.67458 13.4928 11.2851 14.7794 11.2851 17.5481C11.2851 20.6771 9.13017 21.958 7.16958 21.958Z" fill="white"/>
<path d="M37.2365 16.8298C37.2365 16.4183 37.241 15.9967 37.241 15.5693V15.4466C37.241 14.8203 37.2524 14.185 37.2717 13.5496C38.5731 13.569 39.5289 13.6008 40.2518 13.6008C40.5064 13.6008 40.861 13.5121 41.1701 13.3121C41.5316 13.078 41.8316 12.6904 41.8316 12.0812C41.8316 11.1856 41.2031 10.5525 40.2132 10.5525C39.3005 10.5525 38.4003 10.5764 37.3922 10.5957C37.4365 9.6637 37.4786 8.76695 37.507 7.9202C37.5252 7.36328 37.5388 6.82341 37.5388 6.32332C37.5388 5.25494 36.7046 4.26953 35.4521 4.26953C34.6485 4.26953 33.5176 4.87873 33.4437 6.23239C33.4415 6.27785 33.4301 6.31763 33.4301 6.36423C33.4301 6.6927 33.504 8.06227 33.5744 9.63756C33.5835 9.94443 33.5915 10.2581 33.5972 10.5821C33.171 10.5673 32.2003 10.5536 31.8014 10.5536C31.1604 10.5536 30.2102 10.9605 30.2102 12.0994C30.2102 13.0541 31.0649 13.6008 31.8082 13.6008C32.1253 13.6008 33.0948 13.5826 33.6222 13.5644C33.6176 14.6192 33.5983 15.5875 33.5722 16.4718C33.5483 16.8537 33.5233 17.2435 33.5006 17.6231C33.4846 18.1732 33.4642 18.804 33.454 19.3973C33.3971 20.5873 33.3471 22.2467 33.3471 22.9821C33.3471 24.1766 33.8563 25.0313 35.5089 24.9881C36.7148 24.9563 37.4558 24.0493 37.4558 23.0048C37.4558 22.7241 37.382 20.7839 37.3103 19.0143C37.2831 18.3528 37.2569 17.6174 37.2342 16.8287L37.2365 16.8298ZM62.4275 9.40343C62.4275 10.593 61.4632 11.5572 60.2737 11.5572C59.0841 11.5572 58.1198 10.593 58.1198 9.40343C58.1198 8.21389 59.0841 7.24962 60.2737 7.24962C61.4632 7.24962 62.4275 8.21389 62.4275 9.40343ZM29.8237 20.5146C29.2714 20.5146 28.6053 21.0215 28.6042 21.0215C28.0928 21.4102 27.5233 21.7421 26.9073 21.933C26.272 22.1308 25.6287 22.0989 24.9729 22.0989C22.7043 22.0989 21.6779 21.2442 21.2324 20.002C26.5163 19.9599 29.1998 17.8675 29.1998 14.693C29.1998 12.2483 27.0562 10.5173 24.0113 10.5173C20.064 10.5173 16.7861 13.4962 16.7861 18.2107C16.7861 18.9552 16.8668 19.6417 17.0214 20.2713C17.0214 20.2713 17.3021 21.5204 18.0648 22.4956C19.3389 24.1527 21.5484 25.0347 24.6228 25.0347C26.3367 25.0347 28.1496 24.6051 29.6783 23.8299C30.2738 23.5276 30.9706 23.1923 31.1854 22.5115C31.3422 22.0137 31.2627 21.4261 30.9308 21.0146C30.6603 20.6794 30.2488 20.5168 29.8226 20.5168L29.8237 20.5146ZM23.9624 13.1291C25.3354 13.1291 25.8071 14.2111 25.8071 14.876C25.8071 16.482 24.7615 17.506 20.9119 17.5663C20.9233 14.1213 22.8077 13.1291 23.9624 13.1291ZM120.955 10.5911C118.867 10.5911 117.256 12.0562 116.318 13.4814C116.343 13.1223 116.36 12.8063 116.36 12.5426C116.36 11.2594 115.28 10.5843 114.315 10.5843C113.475 10.5843 112.356 11.2469 112.356 12.5836C112.356 13.7883 112.614 15.6637 112.614 17.6061C112.614 17.9289 112.605 18.2369 112.593 18.5381C112.548 19.8565 112.48 20.6157 112.365 21.9944C112.354 22.2558 112.346 22.5183 112.346 22.7866C112.346 23.955 113.289 24.7892 114.374 24.7892C115.371 24.7892 116.362 23.9834 116.362 22.8082C116.362 22.432 116.224 20.7851 116.144 19.27C116.162 16.8605 118.631 13.9338 119.849 13.9338C120.651 13.9338 120.473 15.0397 121.978 15.0397C122.976 15.0397 123.909 14.2384 123.909 13.095C123.909 12.1085 123.241 10.5889 120.957 10.5889L120.955 10.5911ZM109.792 20.4282C109.239 20.4282 108.573 20.9351 108.572 20.9351C108.061 21.3238 107.491 21.6557 106.875 21.8466C106.24 22.0444 105.597 22.0126 104.941 22.0126C102.672 22.0126 101.646 21.1579 101.2 19.9156C106.484 19.8735 109.168 17.7811 109.168 14.6067C109.168 12.1619 107.024 10.4309 103.979 10.4309C100.032 10.4309 96.7542 13.4098 96.7542 18.1232C96.7542 18.8677 96.8349 19.5542 96.9895 20.1838C96.9895 20.1838 97.2702 21.4329 98.0328 22.4081C99.3069 24.0652 101.516 24.9472 104.591 24.9472C106.305 24.9472 108.118 24.5176 109.646 23.7424C110.242 23.4401 110.939 23.1048 111.153 22.424C111.31 21.9262 111.231 21.3386 110.899 20.9271C110.628 20.5918 110.217 20.4293 109.791 20.4293L109.792 20.4282ZM103.931 13.0427C105.303 13.0427 105.775 14.1247 105.775 14.7896C105.775 16.3956 104.73 17.4197 100.88 17.4799C100.891 14.035 102.776 13.0427 103.931 13.0427Z" fill="white"/>
<path d="M58.3437 14.243C58.2902 14.11 58.2232 13.9816 58.1414 13.8634C57.8913 13.4997 57.4924 13.2792 57.0582 13.2099C56.9582 13.1939 56.8548 13.1849 56.7491 13.1837C56.4342 13.1803 56.1092 13.2474 55.8466 13.4053C55.758 13.4588 55.6773 13.5201 55.6034 13.5906C55.5295 13.6599 55.4636 13.7384 55.4056 13.8213C55.2897 13.6531 55.1394 13.5113 54.9646 13.4053C54.8771 13.3531 54.7828 13.3099 54.6839 13.2769C54.4861 13.211 54.2725 13.1814 54.0622 13.1837C53.9576 13.1849 53.8531 13.1939 53.7531 13.2099C53.3189 13.2792 52.9211 13.4997 52.6699 13.8634C52.5881 13.9816 52.521 14.11 52.4676 14.243C52.1903 14.9272 52.3073 15.6978 52.7233 16.357C52.9825 16.7673 53.3393 17.1072 53.7417 17.3754C53.7792 17.3947 53.8144 17.4243 53.8497 17.447C53.886 17.4709 53.9235 17.4936 53.961 17.5152C54.002 17.5391 54.0463 17.5572 54.0883 17.58C54.1622 17.6209 54.2372 17.6584 54.3122 17.6948C54.3838 17.7289 54.4543 17.7618 54.5271 17.7925C54.5657 17.8096 54.6032 17.83 54.643 17.8459C54.6941 17.8664 54.7464 17.8812 54.7987 17.8994C54.8385 17.9141 54.8771 17.9312 54.9169 17.9448C55.0283 17.9823 55.1397 18.0176 55.2556 18.0357C55.3067 18.0437 55.3556 18.046 55.4045 18.046C55.4534 18.046 55.5022 18.0437 55.5534 18.0357C55.6693 18.0176 55.7818 17.9823 55.8921 17.9448C55.9319 17.9312 55.9705 17.913 56.0103 17.8982C56.0626 17.88 56.1148 17.8653 56.166 17.8448C56.2058 17.8289 56.2433 17.8084 56.2819 17.7914C56.3547 17.7607 56.4251 17.7277 56.4967 17.6936C56.5729 17.6573 56.6468 17.6198 56.7206 17.5788C56.7627 17.5561 56.807 17.5379 56.8479 17.5141C56.8854 17.4925 56.9229 17.4686 56.9593 17.4459C56.9946 17.4231 57.0298 17.3924 57.0673 17.3743C57.4685 17.1049 57.8265 16.7651 58.0857 16.3559C58.5016 15.6967 58.6187 14.9261 58.3414 14.2419L58.3437 14.243Z" fill="#C22A22"/>
<path d="M54.6611 30.5334C54.6611 30.8653 54.5486 31.121 54.3213 31.2995C54.0951 31.4779 53.7712 31.5677 53.3495 31.5677H52.9642V32.8566H52.5835V29.5798H53.4325C54.252 29.5798 54.6611 29.8981 54.6611 30.5346V30.5334ZM52.9642 31.2392H53.3075C53.6451 31.2392 53.8894 31.1847 54.0406 31.0756C54.1917 30.9665 54.2668 30.7914 54.2668 30.5505C54.2668 30.3334 54.1952 30.1731 54.0542 30.0663C53.9121 29.9606 53.6905 29.9072 53.3905 29.9072H52.9642V31.2381V31.2392ZM58.6517 31.212C58.6517 31.7371 58.5187 32.1485 58.2539 32.4497C57.989 32.7497 57.6196 32.8998 57.148 32.8998C56.6763 32.8998 56.2933 32.752 56.0307 32.4576C55.7682 32.1621 55.6375 31.7461 55.6375 31.2074C55.6375 30.6687 55.7693 30.2606 56.0319 29.9674C56.2944 29.673 56.6683 29.5264 57.1525 29.5264C57.6367 29.5264 57.9913 29.6753 58.255 29.9754C58.5198 30.2743 58.6517 30.6869 58.6517 31.2131V31.212ZM56.0398 31.212C56.0398 31.6552 56.1341 31.9928 56.3228 32.2212C56.5115 32.4508 56.7865 32.5656 57.1468 32.5656C57.5071 32.5656 57.7845 32.452 57.9697 32.2224C58.155 31.9939 58.247 31.6564 58.247 31.212C58.247 30.7676 58.155 30.4368 57.9697 30.2095C57.7856 29.981 57.5128 29.8674 57.1502 29.8674C56.7877 29.8674 56.5115 29.9822 56.3217 30.2118C56.133 30.4414 56.0387 30.7755 56.0387 31.2131L56.0398 31.212ZM62.7013 32.8554H62.3239L61.6624 30.6607C61.6318 30.5641 61.5954 30.4414 61.5567 30.2936C61.5181 30.1458 61.4976 30.0572 61.4965 30.0265C61.4635 30.2243 61.4113 30.4402 61.3396 30.6744L60.6986 32.8554H60.3224L59.4507 29.5787H59.8541L60.3724 31.6029C60.444 31.8871 60.4963 32.1439 60.5293 32.3735C60.5691 32.0996 60.6293 31.8325 60.7089 31.5711L61.2965 29.5787H61.6999L62.316 31.5893C62.3876 31.8212 62.4478 32.0826 62.4978 32.3735C62.5262 32.161 62.5796 31.9019 62.6592 31.5973L63.1752 29.5776H63.5787L62.7024 32.8543L62.7013 32.8554ZM66.3769 32.8554H64.5505V29.5787H66.3769V29.9174H64.9312V30.9733H66.2894V31.3097H64.9312V32.5156H66.3769V32.8566V32.8554ZM67.9443 31.4927V32.8554H67.5635V29.5787H68.4625C68.8649 29.5787 69.1615 29.656 69.3536 29.8094C69.5457 29.964 69.6412 30.1947 69.6412 30.5039C69.6412 30.938 69.4218 31.2301 68.982 31.3824L69.8719 32.8554H69.4218L68.6285 31.4927H67.9443ZM67.9443 31.1654H68.4671C68.7365 31.1654 68.9331 31.1119 69.0592 31.0051C69.1843 30.8983 69.2479 30.738 69.2479 30.5243C69.2479 30.3107 69.1843 30.1515 69.0558 30.0561C68.9285 29.9606 68.7228 29.9129 68.4409 29.9129H67.9454V31.1665L67.9443 31.1654ZM72.6872 32.8554H70.8607V29.5787H72.6872V29.9174H71.2415V30.9733H72.5997V31.3097H71.2415V32.5156H72.6872V32.8566V32.8554ZM76.489 31.1858C76.489 31.7268 76.3424 32.1405 76.048 32.4258C75.7548 32.7122 75.332 32.8554 74.7807 32.8554H73.8726V29.5787H74.8762C75.3865 29.5787 75.7821 29.7196 76.0639 30.0026C76.3458 30.2856 76.4879 30.68 76.4879 31.1869L76.489 31.1858ZM76.0855 31.1995C76.0855 30.7721 75.9787 30.4504 75.7639 30.2334C75.5491 30.0163 75.2308 29.9083 74.808 29.9083H74.2545V32.5258H74.7182C75.1729 32.5258 75.5138 32.4144 75.7423 32.1905C75.9707 31.9666 76.0855 31.6359 76.0855 31.1983V31.1995ZM79.3304 29.5776H80.2556C80.6909 29.5776 81.0046 29.6423 81.199 29.7731C81.3933 29.9026 81.4899 30.1083 81.4899 30.3891C81.4899 30.5834 81.4354 30.7437 81.3274 30.8698C81.2183 30.996 81.0614 31.0778 80.8535 31.1153V31.1369C81.3513 31.2222 81.6002 31.4836 81.6002 31.9212C81.6002 32.2144 81.5013 32.4429 81.3035 32.6065C81.1058 32.7713 80.8285 32.8532 80.4727 32.8532H79.3293V29.5764L79.3304 29.5776ZM79.7112 30.9812H80.3386C80.608 30.9812 80.8012 30.9392 80.9194 30.8551C81.0376 30.771 81.0967 30.6289 81.0967 30.4277C81.0967 30.2436 81.0308 30.1118 80.8989 30.0299C80.7671 29.9481 80.5579 29.9083 80.2715 29.9083H79.7112V30.9824V30.9812ZM79.7112 31.304V32.5304H80.3954C80.6602 32.5304 80.8591 32.4792 80.9921 32.3758C81.1262 32.2735 81.1933 32.1133 81.1933 31.895C81.1933 31.6927 81.1251 31.5427 80.9876 31.4472C80.8512 31.3518 80.6432 31.3029 80.3636 31.3029H79.7112V31.304ZM83.5983 31.2165L84.4723 29.5787H84.8849L83.7915 31.5847V32.8554H83.4062V31.6029L82.3151 29.5787H82.7322L83.5994 31.2165H83.5983ZM87.4024 28.1682H116.282V34.258H87.4024V28.1682Z" fill="white"/>
<path d="M93.2968 33.4725V28.3647H87.5991V34.0624H116.085V33.4725H93.2956H93.2968ZM92.7069 33.4725H88.1879V28.9535H92.7069V33.4725Z" fill="#C22A22"/>
<path d="M88.3843 29.1501H89.7595V30.5254H88.3843V29.1501ZM88.3843 31.9007H89.7595V33.2759H88.3843V31.9007ZM89.7595 30.5254H91.1348V31.9007H89.7595V30.5254ZM91.1348 29.1501H92.51V30.5254H91.1348V29.1501ZM91.1348 31.9007H92.51V33.2759H91.1348V31.9007Z" fill="#C22A22"/>
<path d="M93.292 28.3647H116.085V33.4725H93.292V28.3647Z" fill="black"/>
<path d="M107.806 29.5094C107.806 29.4503 107.838 29.4185 107.897 29.4185H108.344C108.389 29.4185 108.426 29.4366 108.453 29.4776L109.555 31.1449C109.66 31.304 109.774 31.4734 109.893 31.6689C109.911 31.7007 109.943 31.6961 109.943 31.6598C109.938 31.4734 109.929 31.1949 109.929 31.0085V29.5094C109.929 29.4503 109.961 29.4185 110.02 29.4185H110.385C110.444 29.4185 110.476 29.4503 110.476 29.5094V32.5156C110.476 32.5747 110.444 32.6065 110.385 32.6065H109.952C109.907 32.6065 109.87 32.5884 109.843 32.5474L108.727 30.8801C108.618 30.721 108.509 30.5516 108.389 30.3561C108.371 30.3243 108.339 30.3289 108.339 30.3652C108.344 30.5516 108.353 30.8301 108.353 31.0165V32.5156C108.353 32.5747 108.321 32.6065 108.262 32.6065H107.897C107.838 32.6065 107.806 32.5747 107.806 32.5156V29.5094ZM105.925 29.4185H106.294C106.306 29.4185 106.318 29.4208 106.329 29.4254C106.34 29.4299 106.35 29.4366 106.359 29.4451C106.367 29.4535 106.374 29.4636 106.378 29.4746C106.383 29.4856 106.385 29.4974 106.385 29.5094V32.5156C106.385 32.5397 106.376 32.5629 106.359 32.5799C106.342 32.597 106.319 32.6065 106.294 32.6065H105.925C105.901 32.6065 105.878 32.597 105.861 32.5799C105.844 32.5629 105.834 32.5397 105.834 32.5156V29.5094C105.834 29.4974 105.837 29.4856 105.841 29.4746C105.846 29.4636 105.852 29.4535 105.861 29.4451C105.869 29.4366 105.879 29.4299 105.89 29.4254C105.901 29.4208 105.913 29.4185 105.925 29.4185ZM104.664 32.1474C104.55 32.1474 104.45 32.1474 104.391 32.1292C104.327 32.111 104.291 32.0746 104.254 32.0201L103.885 31.4734C103.867 31.4461 103.876 31.4279 103.908 31.4143C104.017 31.3688 104.117 31.3006 104.2 31.2188C104.386 31.0324 104.501 30.7539 104.501 30.463C104.501 30.172 104.392 29.8845 104.2 29.6981C104.018 29.5162 103.803 29.4207 103.444 29.4207H102.191C102.132 29.4207 102.101 29.4526 102.101 29.5117V32.5179C102.101 32.577 102.132 32.6088 102.191 32.6088H102.565C102.624 32.6088 102.656 32.577 102.656 32.5179V31.5427C102.656 31.5154 102.675 31.4972 102.702 31.4972H103.167C103.226 31.4972 103.271 31.52 103.303 31.57L103.822 32.344C104.009 32.6213 104.192 32.677 104.483 32.677C104.528 32.677 104.651 32.677 104.692 32.6634C104.737 32.6497 104.756 32.6179 104.756 32.577V32.2394C104.756 32.1803 104.724 32.1485 104.665 32.1485L104.664 32.1474ZM103.785 30.8267C103.689 30.913 103.585 30.9585 103.411 30.9585H102.701C102.673 30.9585 102.655 30.9403 102.655 30.9131V30.0015C102.655 29.9742 102.673 29.9561 102.701 29.9561H103.411C103.584 29.9561 103.689 30.0015 103.78 30.0879C103.876 30.1743 103.926 30.3152 103.926 30.4618C103.926 30.5982 103.876 30.7392 103.785 30.8267ZM98.5044 32.2974C98.2726 32.0701 98.1578 31.778 98.1578 31.3177V29.5094C98.1578 29.4503 98.1896 29.4185 98.2487 29.4185L98.6317 29.423C98.6908 29.423 98.7226 29.4548 98.7226 29.5139V31.3904C98.7226 31.6495 98.7908 31.8053 98.9227 31.9462C99.05 32.0871 99.2602 32.1508 99.4648 32.1508C99.6694 32.1508 99.8933 32.0871 100.025 31.9462C100.152 31.8053 100.216 31.6507 100.216 31.3904V29.5094C100.216 29.4503 100.248 29.4185 100.307 29.4185H100.69C100.749 29.4185 100.781 29.4503 100.781 29.5094V31.3404C100.781 31.7962 100.667 32.0689 100.439 32.3019C100.202 32.5429 99.8376 32.6759 99.4637 32.6759C99.0898 32.6759 98.7351 32.5349 98.5021 32.2974M96.7643 29.7151C96.5643 29.5196 96.3358 29.4196 95.9494 29.4196H94.6378C94.5787 29.4196 94.5469 29.4514 94.5469 29.5105V32.5168C94.5469 32.5759 94.5787 32.6077 94.6378 32.6077H95.0117C95.0708 32.6077 95.1027 32.5759 95.1027 32.5168V31.6882C95.1027 31.6609 95.1208 31.6427 95.1481 31.6427H95.9312C96.3233 31.6427 96.5643 31.5427 96.7598 31.3472C96.9598 31.1472 97.0837 30.8505 97.0837 30.5368C97.0837 30.2231 96.9655 29.9174 96.7643 29.7174V29.7151ZM96.354 30.954C96.2495 31.054 96.1267 31.104 95.9255 31.104H95.147C95.1197 31.104 95.1015 31.0858 95.1015 31.0585V30.0015C95.1015 29.9742 95.1197 29.9561 95.147 29.9561H95.9255C96.1256 29.9561 96.2495 30.0106 96.354 30.1061C96.4631 30.2061 96.5177 30.3698 96.5177 30.5346C96.5177 30.6994 96.4631 30.8539 96.354 30.954ZM114.635 32.502L113.387 29.4867C113.369 29.4366 113.332 29.4185 113.282 29.4185H112.808C112.758 29.4185 112.722 29.4457 112.704 29.4912L111.469 32.502C111.442 32.5656 111.474 32.6065 111.542 32.6065H111.943C111.993 32.6065 112.03 32.5793 112.048 32.5338L112.289 31.9371C112.302 31.9007 112.325 31.8871 112.362 31.8871H113.728C113.764 31.8871 113.787 31.9007 113.8 31.9371L114.046 32.5338C114.064 32.5793 114.1 32.6065 114.15 32.6065H114.565C114.634 32.6065 114.661 32.5656 114.634 32.502H114.635ZM113.5 31.354H112.584C112.543 31.354 112.521 31.3313 112.539 31.2904L112.743 30.7573C112.834 30.5255 112.916 30.3107 113.007 30.0697C113.025 30.0197 113.053 30.0197 113.071 30.0697C113.162 30.3107 113.243 30.5255 113.334 30.7573L113.539 31.2904C113.557 31.3313 113.539 31.354 113.498 31.354H113.5Z" fill="white"/>
<path d="M114.694 29.1809C114.405 29.1809 114.172 29.4128 114.172 29.7026C114.172 29.7712 114.185 29.8392 114.211 29.9026C114.237 29.966 114.276 30.0237 114.324 30.0722C114.373 30.1207 114.43 30.1591 114.494 30.1852C114.557 30.2113 114.625 30.2246 114.694 30.2243C114.984 30.2243 115.215 29.9913 115.215 29.7026C115.215 29.4139 114.984 29.1809 114.694 29.1809ZM114.694 30.1368C114.456 30.1368 114.265 29.9356 114.265 29.7026C114.265 29.4696 114.456 29.2741 114.694 29.2741C114.931 29.2741 115.128 29.4651 115.128 29.7026C115.128 29.9401 114.931 30.1368 114.694 30.1368Z" fill="white"/>
<path d="M114.86 29.8629L114.797 29.7697C114.874 29.7435 114.917 29.6719 114.917 29.5992C114.917 29.5014 114.849 29.4185 114.73 29.4185H114.498V29.9708H114.596V29.7799H114.689L114.787 29.9242C114.828 29.9867 114.86 29.9867 114.937 29.9811V29.8935C114.896 29.8935 114.886 29.8992 114.86 29.8629ZM114.726 29.6878H114.596V29.5128H114.726C114.767 29.5128 114.813 29.5333 114.813 29.6003C114.813 29.6628 114.772 29.6878 114.726 29.6878Z" fill="white"/>
<path d="M120.405 23.6093C120.405 24.2572 119.983 24.8039 119.224 24.8039C118.465 24.8039 118.043 24.2572 118.043 23.6093C118.043 22.9615 118.468 22.4148 119.224 22.4148C119.98 22.4148 120.405 22.9581 120.405 23.6093ZM118.291 23.6025C118.291 24.1458 118.629 24.5777 119.224 24.5777C119.82 24.5777 120.16 24.1458 120.16 23.6059C120.16 23.0661 119.82 22.6307 119.224 22.6307C118.629 22.6307 118.291 23.0626 118.291 23.6093V23.6025ZM119.449 23.7537C119.917 23.6753 119.869 22.9785 119.334 22.9785H118.772V24.206H118.998V23.781H119.21L119.55 24.206H119.799V24.1606L119.449 23.7514V23.7548V23.7537ZM119.334 23.1911C119.613 23.1911 119.609 23.5866 119.328 23.5866H118.997V23.1911H119.334Z" fill="white"/>
</svg>
