<svg width="23" height="23" viewBox="0 0 23 23" fill="none" xmlns="http://www.w3.org/2000/svg">
<g clip-path="url(#clip0_1_539)">
<path d="M21.0407 21.242C21.6479 20.6841 22.0227 19.918 22.0908 19.0963C22.1589 18.2745 21.9153 17.4572 21.4083 16.8069C20.857 16.1304 20.1972 15.5207 19.5874 14.8943C19.2292 14.4297 18.772 14.0507 18.249 13.7849C17.726 13.519 17.1504 13.373 16.5639 13.3574C15.7437 13.4071 14.9563 13.6976 14.3004 14.1927C13.9702 14.4342 13.6871 14.7343 13.4652 15.078C13.2564 15.4121 13.1061 15.7629 12.63 15.6293C11.9534 15.4372 11.2351 14.3514 10.7507 13.8753C10.2663 13.3992 9.91546 13.0401 9.54796 12.6308C8.91319 11.9543 8.26171 11.2944 7.65199 10.5928C7.40142 10.3005 7.16755 9.97475 7.44318 9.5989C7.71881 9.22305 8.08631 9.28151 8.35358 9.09776C8.7036 8.83733 8.98932 8.50019 9.18881 8.11219C10.6087 5.55638 8.64591 2.72494 6.4242 1.43034C5.71902 0.953717 4.86342 0.752517 4.01973 0.864906C3.17604 0.977295 2.40295 1.39546 1.84713 2.04005C0.725119 3.58363 0.256946 5.50735 0.544165 7.39389C0.894963 9.89958 2.52366 11.4448 4.12731 13.1653C5.14629 14.2595 6.14857 15.3787 7.19261 16.4478C8.54568 17.8343 9.93217 19.2041 11.327 20.5488C13.7325 22.9459 18.368 23.873 21.0407 21.242Z" fill="#4D4751"/>
</g>
<defs>
<clipPath id="clip0_1_539">
<rect width="22" height="22" fill="white" transform="translate(0.285217 0.828979)"/>
</clipPath>
</defs>
</svg>
