<svg width="26" height="26" viewBox="0 0 26 26" fill="none" xmlns="http://www.w3.org/2000/svg">
<g clip-path="url(#clip0_1_65)">
<g clip-path="url(#clip1_1_65)">
<path d="M22.2887 4.85906C21.7533 4.29445 21.1119 3.84085 20.4012 3.52417C19.6904 3.20749 18.9243 3.03393 18.1464 3.01341C17.3686 2.99288 16.5944 3.1258 15.8679 3.40457C15.1415 3.68333 14.477 4.10248 13.9126 4.63807L13.6916 4.85906C13.2868 5.28426 12.9436 5.76418 12.6722 6.28478C12.4008 5.76418 12.0577 5.28426 11.6528 4.85906C11.1172 4.29233 10.4749 3.83693 9.76291 3.51898C9.05088 3.20103 8.28307 3.0268 7.50355 3.00627C6.72402 2.98573 5.94811 3.11931 5.22032 3.39934C4.49254 3.67936 3.8272 4.10032 3.26248 4.63807L3.04149 4.85906C1.89772 6.06329 1.26001 7.66073 1.26001 9.32156C1.26001 10.9824 1.89772 12.5798 3.04149 13.7841L10.0346 21.041C10.6958 21.7382 11.6061 22.1453 12.5665 22.1733C13.5269 22.2014 14.4594 21.8481 15.1601 21.1907L15.2742 21.0695L22.2887 13.7841C23.4693 12.599 24.1321 10.9943 24.1321 9.32156C24.1321 7.64878 23.4693 6.04416 22.2887 4.85906Z" stroke="#F53646" stroke-width="2.13858"/>
</g>
</g>
<defs>
<clipPath id="clip0_1_65">
<rect width="25" height="25" fill="white" transform="translate(0.189941 0.0900269)"/>
</clipPath>
<clipPath id="clip1_1_65">
<rect width="25" height="25" fill="white" transform="translate(0.189941 0.0900269)"/>
</clipPath>
</defs>
</svg>
