<svg width="22" height="71" viewBox="0 0 22 71" fill="none" xmlns="http://www.w3.org/2000/svg">
<g clip-path="url(#clip0_1_1147)">
<path d="M2.43527 29.9739H19.5647C20.2133 29.9739 20.8354 29.7162 21.294 29.2576C21.7527 28.7989 22.0103 28.1769 22.0103 27.5283C22.0103 26.8797 21.7527 26.2576 21.294 25.799C20.8354 25.3403 20.2133 25.0827 19.5647 25.0827H2.43527C1.78666 25.0827 1.16462 25.3403 0.705978 25.799C0.247341 26.2576 -0.0103188 26.8797 -0.0103188 27.5283C-0.0103188 28.1769 0.247341 28.7989 0.705978 29.2576C1.16462 29.7162 1.78666 29.9739 2.43527 29.9739Z" fill="#6504B5"/>
<path d="M19.5647 33.3378H2.43527C1.78666 33.3378 1.16462 33.5955 0.705978 34.0541C0.247341 34.5128 -0.0103188 35.1348 -0.0103188 35.7834C-0.0103188 36.4321 0.247341 37.0541 0.705978 37.5127C1.16462 37.9714 1.78666 38.229 2.43527 38.229H19.5647C20.2133 38.229 20.8354 37.9714 21.294 37.5127C21.7527 37.0541 22.0103 36.4321 22.0103 35.7834C22.0103 35.1348 21.7527 34.5128 21.294 34.0541C20.8354 33.5955 20.2133 33.3378 19.5647 33.3378Z" fill="#6504B5"/>
<path d="M19.5647 41.593H2.43527C1.78666 41.593 1.16462 41.8507 0.705978 42.3093C0.247341 42.7679 -0.0103188 43.39 -0.0103188 44.0386C-0.0103188 44.6872 0.247341 45.3093 0.705978 45.7679C1.16462 46.2265 1.78666 46.4842 2.43527 46.4842H19.5647C20.2133 46.4842 20.8354 46.2265 21.294 45.7679C21.7527 45.3093 22.0103 44.6872 22.0103 44.0386C22.0103 43.39 21.7527 42.7679 21.294 42.3093C20.8354 41.8507 20.2133 41.593 19.5647 41.593Z" fill="#6504B5"/>
</g>
<defs>
<clipPath id="clip0_1_1147">
<rect width="22" height="70" fill="white" transform="translate(0 0.779999)"/>
</clipPath>
</defs>
</svg>
