<svg width="23" height="5" viewBox="0 0 23 5" fill="none" xmlns="http://www.w3.org/2000/svg">
<path d="M14.7614 0.773218C14.7614 0.710303 14.7953 0.676426 14.8582 0.676426H15.3337C15.3821 0.676426 15.4208 0.695785 15.4498 0.739341L16.6234 2.51426C16.7348 2.68365 16.8558 2.86392 16.9828 3.07203C17.0021 3.1059 17.036 3.10106 17.036 3.06235C17.0312 2.86392 17.0215 2.5675 17.0215 2.36908V0.773218C17.0215 0.710303 17.0554 0.676426 17.1183 0.676426H17.5067C17.5696 0.676426 17.6035 0.710303 17.6035 0.773218V3.9734C17.6035 4.03632 17.5696 4.07019 17.5067 4.07019H17.0457C16.9973 4.07019 16.9586 4.05084 16.9296 4.00728L15.7414 2.23236C15.6253 2.06297 15.5091 1.8827 15.3821 1.67459C15.3627 1.64072 15.3289 1.64556 15.3289 1.68427C15.3337 1.8827 15.3434 2.17912 15.3434 2.37755V3.9734C15.3434 4.03632 15.3095 4.07019 15.2466 4.07019H14.8582C14.7953 4.07019 14.7614 4.03632 14.7614 3.9734V0.773218ZM12.759 0.676426H13.1522C13.165 0.676426 13.1775 0.67893 13.1893 0.683794C13.201 0.688658 13.2117 0.695788 13.2207 0.704776C13.2297 0.713764 13.2368 0.724434 13.2417 0.736177C13.2465 0.74792 13.249 0.760507 13.249 0.773218V3.9734C13.249 3.99907 13.2388 4.02369 13.2207 4.04184C13.2025 4.06 13.1779 4.07019 13.1522 4.07019H12.759C12.7334 4.07019 12.7087 4.06 12.6906 4.04184C12.6724 4.02369 12.6622 3.99907 12.6622 3.9734V0.773218C12.6622 0.760507 12.6647 0.74792 12.6696 0.736177C12.6745 0.724434 12.6816 0.713764 12.6906 0.704776C12.6996 0.695788 12.7102 0.688658 12.722 0.683794C12.7337 0.67893 12.7463 0.676426 12.759 0.676426ZM11.416 3.58139C11.2951 3.58139 11.1886 3.58139 11.1257 3.56203C11.0579 3.54268 11.0192 3.50396 10.9805 3.44589L10.5873 2.86392C10.5679 2.83489 10.5776 2.81553 10.6115 2.80101C10.7276 2.75261 10.8341 2.68002 10.9224 2.59291C11.1208 2.39448 11.243 2.09806 11.243 1.78832C11.243 1.47859 11.1269 1.17249 10.9224 0.974062C10.7288 0.780478 10.5002 0.678846 10.1178 0.678846H8.78451C8.7216 0.678846 8.68772 0.712724 8.68772 0.775639V3.97582C8.68772 4.03874 8.7216 4.07261 8.78451 4.07261H9.18257C9.24548 4.07261 9.27936 4.03874 9.27936 3.97582V2.93773C9.27936 2.90869 9.29872 2.88933 9.32775 2.88933H9.82261C9.88552 2.88933 9.93392 2.91353 9.9678 2.96677L10.5207 3.79071C10.7191 4.08592 10.9139 4.14521 11.2237 4.14521C11.2721 4.14521 11.4027 4.14521 11.4463 4.13069C11.4947 4.11617 11.514 4.08229 11.514 4.03873V3.67939C11.514 3.61648 11.4802 3.5826 11.4173 3.5826L11.416 3.58139ZM10.4808 2.17549C10.3792 2.26744 10.2678 2.31584 10.0827 2.31584H9.32654C9.29751 2.31584 9.27815 2.29648 9.27815 2.26744V1.2971C9.27815 1.26807 9.29751 1.24871 9.32654 1.24871H10.0827C10.2666 1.24871 10.3792 1.2971 10.4759 1.38906C10.5776 1.48101 10.6308 1.63104 10.6308 1.78711C10.6308 1.9323 10.5776 2.08233 10.4808 2.17549ZM4.8596 3.7411C4.61278 3.49912 4.49058 3.18818 4.49058 2.69817V0.773218C4.49058 0.710303 4.52446 0.676426 4.58737 0.676426L4.99511 0.681265C5.05802 0.681265 5.0919 0.715142 5.0919 0.778057V2.7756C5.0919 3.05146 5.16449 3.21721 5.30484 3.36724C5.44035 3.51727 5.66418 3.58502 5.88196 3.58502C6.09975 3.58502 6.3381 3.51727 6.47844 3.36724C6.61395 3.21721 6.68171 3.05267 6.68171 2.7756V0.773218C6.68171 0.710303 6.71558 0.676426 6.7785 0.676426H7.18623C7.24915 0.676426 7.28303 0.710303 7.28303 0.773218V2.72236C7.28303 3.20753 7.16204 3.49791 6.91885 3.74594C6.66719 4.00244 6.27881 4.144 5.88075 4.144C5.4827 4.144 5.10521 3.99397 4.85718 3.7411M3.00724 0.99221C2.7943 0.784107 2.55111 0.677635 2.13975 0.677635H0.743519C0.680604 0.677635 0.646729 0.711513 0.646729 0.774427V3.97461C0.646729 4.03753 0.680604 4.0714 0.743519 4.0714H1.14158C1.2045 4.0714 1.23837 4.03753 1.23837 3.97461V3.09259C1.23837 3.06356 1.25773 3.0442 1.28677 3.0442H2.12038C2.5378 3.0442 2.7943 2.93773 3.00241 2.72962C3.21535 2.51668 3.34722 2.2009 3.34722 1.86697C3.34722 1.53303 3.2214 1.20757 3.00724 0.99463V0.99221ZM2.57047 2.311C2.45916 2.41747 2.32849 2.47071 2.11434 2.47071H1.28556C1.25652 2.47071 1.23716 2.45135 1.23716 2.42231V1.2971C1.23716 1.26807 1.25652 1.24871 1.28556 1.24871H2.11434C2.32728 1.24871 2.45916 1.30678 2.57047 1.40842C2.68662 1.51489 2.7447 1.68911 2.7447 1.86455C2.7447 2.03998 2.68662 2.20453 2.57047 2.311ZM22.0305 3.95888L20.702 0.749021C20.6827 0.695785 20.6439 0.676426 20.5907 0.676426H20.0862C20.0329 0.676426 19.9942 0.705463 19.9749 0.753859L18.6609 3.95888C18.6319 4.02664 18.6658 4.07019 18.7384 4.07019H19.1654C19.2187 4.07019 19.2574 4.04115 19.2768 3.99276L19.5333 3.35756C19.5478 3.31884 19.572 3.30433 19.6107 3.30433H21.065C21.1037 3.30433 21.1279 3.31884 21.1424 3.35756L21.4038 3.99276C21.4231 4.04115 21.4618 4.07019 21.5151 4.07019H21.9567C22.0293 4.07019 22.0583 4.02664 22.0293 3.95888H22.0305ZM20.823 2.73689H19.8478C19.8043 2.73689 19.7801 2.71268 19.7994 2.66913L20.0172 2.10169C20.114 1.85487 20.2011 1.6262 20.2979 1.3697C20.3173 1.31646 20.3463 1.31646 20.3657 1.3697C20.4625 1.6262 20.5496 1.85487 20.6464 2.10169L20.8641 2.66913C20.8835 2.71268 20.8641 2.73689 20.8206 2.73689H20.823Z" fill="white"/>
</svg>
