<svg width="79" height="80" viewBox="0 0 79 80" fill="none" xmlns="http://www.w3.org/2000/svg">
<g clip-path="url(#clip0_1_27)">
<path d="M39.4514 55.0789V61.8688C40.0337 62.596 42.0219 64.8262 45.3197 65.5058C48.1809 66.0882 50.4607 65.1179 51.6245 64.6328C54.4381 63.468 56.087 61.6257 56.7655 60.7051V31.9936C56.7655 22.4397 49.0063 14.6795 39.4514 14.6795C29.8984 14.6795 22.1372 22.4397 22.1372 31.9936V60.7527C23.4833 62.4838 25.2544 63.8372 27.2783 64.6814C28.443 65.1665 30.7219 66.0882 33.5831 65.5545C36.8808 64.9235 38.87 62.6932 39.4514 61.9174V55.0789Z" stroke="#6504B5" stroke-width="3.03846" stroke-miterlimit="10"/>
<path d="M39.4513 55.8061C39.8124 55.8131 40.1712 55.748 40.5068 55.6146C40.8424 55.4813 41.1481 55.2823 41.4059 55.0294C41.6637 54.7765 41.8685 54.4748 42.0083 54.1418C42.1481 53.8088 42.2201 53.4513 42.2201 53.0902C42.2201 52.7291 42.1481 52.3716 42.0083 52.0386C41.8685 51.7056 41.6637 51.4039 41.4059 51.151C41.1481 50.8981 40.8424 50.6992 40.5068 50.5658C40.1712 50.4324 39.8124 50.3674 39.4513 50.3743C38.7401 50.3881 38.0626 50.6802 37.5645 51.1881C37.0664 51.6959 36.7874 52.3789 36.7874 53.0902C36.7874 53.8015 37.0664 54.4845 37.5645 54.9923C38.0626 55.5002 38.7401 55.7923 39.4513 55.8061ZM46.2899 40.9166C46.6509 40.9236 47.0098 40.8585 47.3454 40.7251C47.681 40.5918 47.9866 40.3928 48.2444 40.14C48.5023 39.8871 48.7071 39.5853 48.8469 39.2523C48.9867 38.9194 49.0587 38.5619 49.0587 38.2007C49.0587 37.8396 48.9867 37.4821 48.8469 37.1491C48.7071 36.8161 48.5023 36.5144 48.2444 36.2615C47.9866 36.0086 47.681 35.8097 47.3454 35.6763C47.0098 35.543 46.6509 35.4779 46.2899 35.4849C45.5786 35.4986 44.9012 35.7908 44.4031 36.2986C43.905 36.8064 43.6259 37.4894 43.6259 38.2007C43.6259 38.9121 43.905 39.595 44.4031 40.1029C44.9012 40.6107 45.5786 40.9029 46.2899 40.9166Z" fill="#6504B5"/>
<path d="M28.2476 18.3662C26.9877 17.88 24.4171 17.3959 21.9925 18.3662C19.8584 19.2382 18.6461 20.8385 17.9665 21.7601C12.1468 29.8597 7.15159 38.5892 3.22286 47.7552C2.40405 49.5852 1.88035 51.5333 1.67122 53.5272C1.52538 54.933 1.38054 56.1454 1.76845 57.6008C2.69012 61.4323 5.93925 63.4691 6.56922 63.857C10.0614 66.0396 13.6022 65.6031 14.6687 65.4086C17.9179 64.8759 21.3128 61.3837 22.1373 60.6565M50.7525 18.3662C52.0125 17.88 54.583 17.3959 57.0077 18.3662C59.1417 19.2382 60.354 20.8385 61.0336 21.7601C66.8533 29.8597 71.8485 38.5892 75.7773 47.7552C76.5961 49.5852 77.1198 51.5333 77.3289 53.5272C77.4748 54.933 77.6196 56.1454 77.2317 57.6008C76.31 61.4323 73.0609 63.4691 72.4309 63.857C68.9387 66.0396 65.3979 65.6031 64.3314 65.4086C61.0823 64.8759 57.6873 61.3837 56.8628 60.6565" stroke="#6504B5" stroke-width="3.03846" stroke-miterlimit="10"/>
</g>
<defs>
<clipPath id="clip0_1_27">
<rect width="79" height="79" fill="white" transform="translate(0 0.5)"/>
</clipPath>
</defs>
</svg>
