<svg width="79" height="80" viewBox="0 0 79 80" fill="none" xmlns="http://www.w3.org/2000/svg">
<g clip-path="url(#clip0_1_34)">
<path d="M47.1155 67.2437C48.5353 67.1884 56.9973 66.6975 62.3479 59.873C67.6431 53.158 66.7154 44.2039 64.6411 36.4518C62.5115 28.6985 60.0546 21.0558 58.1981 13.2484C58.0898 12.7021 57.3799 12.4843 56.9973 12.9211C53.668 16.5246 50.3365 20.1823 47.0061 23.7858H32.1563C28.827 20.1823 25.4955 16.5246 22.1651 12.9211C21.7836 12.4843 21.0738 12.7021 20.9643 13.2484C19.0536 21.0558 16.5967 28.6985 14.5224 36.4518C12.3928 44.2051 11.5204 53.158 16.8157 59.873C22.1651 66.6975 30.6282 67.1884 32.0469 67.2426" stroke="#6504B5" stroke-width="3.38571" stroke-miterlimit="10" stroke-linecap="round"/>
<path d="M39.1456 48.8988C39.5664 48.9067 39.9846 48.8307 40.3757 48.6752C40.7668 48.5196 41.1229 48.2877 41.4234 47.9929C41.7238 47.6981 41.9624 47.3463 42.1253 46.9582C42.2882 46.5701 42.3721 46.1535 42.3721 45.7326C42.3721 45.3117 42.2882 44.895 42.1253 44.5069C41.9624 44.1188 41.7238 43.7671 41.4234 43.4723C41.1229 43.1775 40.7668 42.9455 40.3757 42.79C39.9846 42.6344 39.5664 42.5584 39.1456 42.5664C38.3162 42.582 37.5261 42.9225 36.9451 43.5146C36.3641 44.1066 36.0386 44.9031 36.0386 45.7326C36.0386 46.5621 36.3641 47.3585 36.9451 47.9506C37.5261 48.5427 38.3162 48.8831 39.1456 48.8988ZM48.5353 41.6929C49.3752 41.6929 50.1806 41.3592 50.7745 40.7653C51.3684 40.1714 51.7021 39.366 51.7021 38.5261C51.7021 37.6862 51.3684 36.8807 50.7745 36.2868C50.1806 35.693 49.3752 35.3593 48.5353 35.3593C47.6954 35.3593 46.8899 35.693 46.296 36.2868C45.7021 36.8807 45.3685 37.6862 45.3685 38.5261C45.3685 39.366 45.7021 40.1714 46.296 40.7653C46.8899 41.3592 47.6954 41.6929 48.5353 41.6929Z" fill="#6504B5"/>
<path d="M1.74817 40.8735L22.3852 42.6205M1.69287 54.0857L22.3841 52.1197M77.253 40.8735L56.6159 42.6205M77.3072 54.0857L56.6159 52.1197M29.9737 53.1027C30.1916 53.3747 31.6666 55.3937 34.3955 55.5585C37.1797 55.7221 38.982 53.8114 39.1998 53.5925V47.751" stroke="#6504B5" stroke-width="3.38571" stroke-miterlimit="10" stroke-linecap="round"/>
<path d="M48.3717 53.0486C48.1528 53.3217 46.6789 55.3418 43.95 55.5055C41.1647 55.6691 39.3635 53.7584 39.1445 53.5395V47.698" stroke="#6504B5" stroke-width="3.38571" stroke-miterlimit="10" stroke-linecap="round"/>
</g>
<defs>
<clipPath id="clip0_1_34">
<rect width="79" height="79" fill="white" transform="translate(0 0.5)"/>
</clipPath>
</defs>
</svg>
