<svg width="79" height="80" viewBox="0 0 79 80" fill="none" xmlns="http://www.w3.org/2000/svg">
<g clip-path="url(#clip0_1_42)">
<path d="M20.1187 34.2296C20.1187 27.7378 15.8321 22.4666 10.5746 22.4666C5.31713 22.4666 1.03052 27.7378 1.03052 34.2284C1.03052 40.7202 5.31713 45.9731 10.5746 45.9731C15.8321 45.9731 20.1187 40.703 20.1187 34.2296ZM10.5746 42.6814C7.09405 42.6814 4.27295 38.8894 4.27295 34.2101C4.27295 29.5308 7.09405 25.7399 10.5746 25.7399C14.0552 25.7399 16.8397 29.5491 16.8397 34.2284C16.8397 38.9077 14.0552 42.6814 10.5746 42.6814ZM78.4459 34.2101C78.4459 27.7367 74.1593 22.4666 68.9018 22.4666C63.6443 22.4666 59.3577 27.7378 59.3577 34.2284C59.2913 34.8547 59.5855 35.4649 60.1134 35.7993C60.3721 35.9631 60.6721 36.0501 60.9783 36.0501C61.2846 36.0501 61.5846 35.9631 61.8433 35.7993C62.1035 35.6342 62.3122 35.3995 62.4457 35.1219C62.5793 34.8442 62.6324 34.5347 62.599 34.2284C62.599 29.5686 65.4212 25.7583 68.9018 25.7583C72.3824 25.7583 75.2035 29.5491 75.2035 34.2284C75.2035 38.8894 72.3824 42.6814 68.9018 42.6814C68.6866 42.6823 68.4737 42.7256 68.2753 42.8089C68.0768 42.8922 67.8967 43.0137 67.7453 43.1666C67.5939 43.3195 67.4741 43.5008 67.3928 43.7001C67.3115 43.8993 67.2702 44.1126 67.2714 44.3278C67.2704 44.5429 67.3117 44.7561 67.3931 44.9553C67.4745 45.1544 67.5943 45.3355 67.7457 45.4883C67.8971 45.6411 68.0772 45.7625 68.2755 45.8457C68.4739 45.9289 68.6867 45.9722 68.9018 45.9731C74.1593 45.9731 78.4459 40.7018 78.4459 34.2101ZM51.6455 25.2591C56.903 25.2591 61.1896 19.9878 61.1896 13.4961C61.1896 7.00434 56.8847 1.73309 51.6455 1.73309C46.4063 1.73309 42.1014 7.00434 42.1014 13.4961C42.1014 19.9878 46.3513 25.2591 51.6455 25.2591ZM51.6455 5.0259C55.1261 5.0259 57.9472 8.81676 57.9472 13.4961C57.9472 18.1754 55.0894 21.9674 51.6455 21.9674C48.2015 21.9674 45.3438 18.1754 45.3438 13.4961C45.3438 8.81676 48.1466 5.0259 51.6455 5.0259ZM27.831 25.2591C33.0885 25.2591 37.3751 19.9878 37.3751 13.4961C37.3751 7.00434 33.1251 1.73309 27.831 1.73309C22.5368 1.73309 18.2869 7.00434 18.2869 13.4961C18.2869 19.9878 22.5918 25.2591 27.831 25.2591ZM27.831 5.0259C31.3116 5.0259 34.1327 8.81676 34.1327 13.4961C34.1327 18.1754 31.3299 21.9674 27.831 21.9674C24.3321 21.9674 21.5293 18.1754 21.5293 13.4961C21.5293 8.81676 24.387 5.0259 27.831 5.0259ZM62.6368 54.7215L52.5614 36.911C49.2274 31.0478 44.666 27.8111 39.7382 27.8111C34.8105 27.8111 30.2491 31.0478 26.915 36.911L16.8397 54.7032C16.1704 55.8789 15.6182 57.1176 15.191 58.4013C14.5696 60.0373 14.259 61.7749 14.275 63.5248C14.3518 70.8409 20.0443 76.8403 27.2814 77.2296H27.831C29.6629 77.2365 31.4764 76.8644 33.1618 76.1385C34.3708 75.6576 36.3859 74.7325 38.4742 73.7342L39.2253 74.049C43.2897 75.9524 47.6925 77.027 52.1767 77.2101C59.4241 76.8495 65.1487 70.8672 65.2564 63.542C65.2156 61.8291 64.9129 60.1325 64.3587 58.5112C63.9131 57.1931 63.3363 55.9231 62.6368 54.7203V54.7215ZM52.1584 73.9379C48.8331 73.8272 45.5556 73.1126 42.4861 71.829L43.1089 71.5153L44.9408 70.6635C45.061 70.5925 45.1721 70.5055 45.2705 70.4047L48.8244 68.574C49.6189 68.1606 49.9349 67.1771 49.5342 66.3711C49.4399 66.1798 49.3087 66.009 49.1483 65.8684C48.9879 65.7278 48.8014 65.6201 48.5993 65.5517C48.3973 65.4832 48.1838 65.4552 47.9709 65.4693C47.7581 65.4834 47.5501 65.5393 47.3589 65.6338L45.527 66.5211C42.6876 67.982 37.943 70.4425 35.9462 71.2748L35.763 71.4042C34.2426 72.1255 32.832 72.7541 31.9527 73.1056C30.575 73.7311 29.0672 74.0165 27.5562 73.9379H27.3913C21.89 73.6471 17.5507 69.1041 17.4625 63.5431C17.4667 63.5001 17.4667 63.4568 17.4625 63.4138C17.4694 62.0914 17.7178 60.7804 18.1953 59.5485C18.5594 58.4551 19.0311 57.4018 19.6058 56.4045L29.6629 38.5563C32.3924 33.7476 35.9462 31.1589 39.6833 31.1589C43.4203 31.1589 47.0108 33.8037 49.7037 38.5574L59.834 56.3679C60.4065 57.3663 60.8782 58.4196 61.2445 59.5119C61.7059 60.8068 61.9659 62.1681 62.0139 63.5431C61.9361 69.0812 57.6346 73.6185 52.1584 73.9379Z" fill="#6504B5"/>
</g>
<defs>
<clipPath id="clip0_1_42">
<rect width="79" height="79" fill="white" transform="translate(0 0.5)"/>
</clipPath>
</defs>
</svg>
