<svg width="79" height="80" viewBox="0 0 79 80" fill="none" xmlns="http://www.w3.org/2000/svg">
<g clip-path="url(#clip0_1_47)">
<path d="M77.7837 20.8274L40.0929 2.22921C39.9106 2.14034 39.7105 2.09415 39.5077 2.09415C39.3049 2.09415 39.1048 2.14034 38.9225 2.22921L1.21609 20.8274C0.905943 20.9737 0.668943 21.2409 0.556783 21.5667C0.445598 21.8924 0.469005 22.2504 0.622129 22.5595C0.78137 22.8683 1.0554 23.1023 1.38532 23.2112C1.71524 23.32 2.07471 23.2951 2.38646 23.1418L39.4999 4.83524L76.6133 23.1418C76.7986 23.2296 77.0015 23.2744 77.2073 23.2715C77.6979 23.2734 78.1494 22.9984 78.3776 22.5595C78.5308 22.2513 78.5542 21.8934 78.443 21.5667C78.388 21.4057 78.3013 21.2573 78.1881 21.1304C78.0748 21.0034 77.9373 20.9004 77.7837 20.8274ZM65.84 61.1954C64.8314 60.7335 63.6842 60.6756 62.6342 61.0335L48.7507 64.2705C48.8709 63.0817 48.5517 61.89 47.8534 60.9204C47.0861 59.8686 45.9327 59.1642 44.6466 58.9619L32.4133 56.2906H32.2533C30.8858 55.9111 29.4522 55.8333 28.0516 56.0624C26.651 56.2916 25.3169 56.8224 24.1417 57.618C22.1696 58.9619 12.4702 65.3063 12.358 65.3717C12.2151 65.4648 12.092 65.5853 11.996 65.7262C11.9 65.8672 11.8329 66.0259 11.7986 66.1929C11.7643 66.36 11.7635 66.5323 11.7962 66.6997C11.829 66.8671 11.8946 67.0263 11.9894 67.1682C12.1825 67.4548 12.4804 67.6543 12.8189 67.724C13.1575 67.7936 13.5099 67.7278 13.8005 67.5408C14.2014 67.2813 23.6443 61.0657 25.6164 59.7549C26.5224 59.1414 27.5562 58.7424 28.6395 58.5881C29.7227 58.4338 30.8268 58.5283 31.8681 58.8644H31.9812L44.1336 61.5192C44.7724 61.5972 45.3517 61.9366 45.736 62.4575C46.1047 62.9588 46.2549 63.5898 46.1534 64.2062C46.0507 64.8173 45.7133 65.3641 45.2132 65.7299C44.713 66.0958 44.0897 66.2518 43.4762 66.1646L35.4592 64.5456C35.2896 64.5024 35.1132 64.4939 34.9403 64.5203C34.7673 64.5468 34.6015 64.6078 34.4527 64.6997C34.1503 64.885 33.9357 65.1854 33.8568 65.5336C33.8207 65.7009 33.8183 65.8738 33.8497 66.0421C33.8811 66.2104 33.9456 66.3708 34.0396 66.5139C34.1335 66.657 34.255 66.78 34.3969 66.8758C34.5388 66.9715 34.6983 67.0381 34.8662 67.0716L42.8832 68.6897C43.1495 68.7111 43.4177 68.7111 43.684 68.6897C44.3474 68.686 45.0035 68.5511 45.6145 68.2926C46.2254 68.0342 46.7792 67.6573 47.2438 67.1838L63.275 63.4289H63.4193C63.836 63.2604 64.3018 63.2604 64.7184 63.4289C65.132 63.6083 65.4519 63.9555 65.6001 64.3847C65.803 64.8099 65.8108 65.3034 65.6226 65.7355C65.5304 65.9485 65.3933 66.1391 65.2205 66.2941C65.0478 66.4492 64.8436 66.565 64.6219 66.6337L47.4194 72.8172C46.5728 73.1722 45.6278 73.2073 44.7588 72.9147L30.33 69.8717C30.0251 69.8074 29.7073 69.853 29.4327 70.0005L19.4758 75.2613C19.1735 75.4193 18.9472 75.6934 18.8477 76.022C18.7482 76.3517 18.7834 76.7067 18.9472 77.0091C19.2983 77.644 20.0883 77.881 20.7262 77.5435L30.3456 72.4934L44.2926 75.4388C45.6673 75.8427 47.139 75.7629 48.462 75.2125L65.5514 69.0613C66.3499 68.778 67.0448 68.2609 67.5454 67.5773C68.046 66.8937 68.3293 66.0751 68.3583 65.2283C68.3913 64.3811 68.1688 63.5435 67.7198 62.8243C67.2707 62.1052 66.6158 61.5376 65.84 61.1954Z" fill="#6504B5"/>
<path d="M22.9392 32.8529C22.746 35.5204 24.724 37.8426 27.3641 38.0494C29.978 37.8095 31.9188 35.497 31.7238 32.8529C31.9178 30.1874 29.9389 27.8642 27.2998 27.6575C24.6859 27.8984 22.7451 30.2089 22.9392 32.8529ZM29.5605 32.8529C29.6396 33.5389 29.4575 34.2296 29.0506 34.7874C28.6436 35.3453 28.0415 35.7296 27.3641 35.8637C25.9392 35.6238 24.9473 34.3032 25.1034 32.8529C25.0251 32.1648 25.2094 31.4726 25.6195 30.9145C26.0296 30.3565 26.6353 29.9739 27.3154 29.8431C27.9928 29.9773 28.5948 30.3615 29.0018 30.9194C29.4088 31.4773 29.5908 32.1679 29.5118 32.8539L29.5605 32.8529ZM56.1094 32.8529C56.3025 35.5204 54.3246 37.8426 51.6844 38.0494C49.0511 37.8348 47.081 35.5136 47.276 32.8529C47.081 30.1933 49.0511 27.873 51.6844 27.6575C54.3246 27.8642 56.3025 30.1874 56.1084 32.8539L56.1094 32.8529ZM53.8964 32.8529C53.9794 32.1622 53.7973 31.4656 53.3867 30.9039C52.9762 30.3422 52.3678 29.9572 51.6844 29.8266C50.278 30.0967 49.3193 31.4192 49.488 32.8539C49.4093 33.5421 49.5934 34.2346 50.0036 34.7927C50.4138 35.3509 51.0197 35.7334 51.7 35.8637C52.3774 35.7296 52.9795 35.3453 53.3865 34.7874C53.7934 34.2296 53.9755 33.5389 53.8964 32.8529ZM44.4701 19.2249C41.8299 19.4317 39.852 21.7539 40.0451 24.4204C39.852 27.0869 41.8299 29.4091 44.4701 29.6159C47.1102 29.4091 49.0882 27.0869 48.895 24.4204C49.0882 21.7539 47.1102 19.4317 44.4701 19.2249ZM44.4701 27.4468C43.7929 27.3127 43.1909 26.9286 42.784 26.3709C42.377 25.8132 42.1949 25.1228 42.2737 24.437C42.1946 23.751 42.3767 23.0604 42.7836 22.5025C43.1906 21.9446 43.7927 21.5604 44.4701 21.4262C45.1475 21.5604 45.7495 21.9446 46.1565 22.5025C46.5635 23.0604 46.7455 23.751 46.6665 24.437C46.7455 25.123 46.5635 25.8136 46.1565 26.3715C45.7495 26.9294 45.1475 27.3126 44.4701 27.4468ZM30.1047 24.4204C29.9116 21.7539 31.8896 19.4317 34.5297 19.2249C37.1767 19.4229 39.1644 21.7481 38.9713 24.4204C39.1644 27.0928 37.1767 29.4179 34.5297 29.6159C31.8896 29.4091 29.9116 27.0869 30.1047 24.4204ZM32.3333 24.437C32.2543 25.123 32.4363 25.8136 32.8433 26.3715C33.2503 26.9294 33.8523 27.3136 34.5297 27.4478C35.2071 27.3136 35.8092 26.9294 36.2162 26.3715C36.6231 25.8136 36.8052 25.123 36.7261 24.437C36.8052 23.751 36.6231 23.0604 36.2162 22.5025C35.8092 21.9446 35.2071 21.5604 34.5297 21.4262C33.8523 21.5604 33.2503 21.9446 32.8433 22.5025C32.4363 23.0604 32.2543 23.751 32.3333 24.437ZM33.7602 33.7278L29.5274 40.946C29.2304 41.4587 28.9888 42.0014 28.8066 42.5651C28.5249 43.2815 28.3835 44.0453 28.3902 44.8151C28.4643 48.0599 31.0284 50.6845 34.242 50.8035H34.5463C35.3538 50.8083 36.1544 50.6546 36.9026 50.3509L37.6078 50.1237C38.2124 49.8872 38.8514 49.7505 39.4999 49.7189C40.1475 49.7502 40.7873 49.8867 41.392 50.1237L42.1771 50.3188C42.9846 50.5649 43.8192 50.7117 44.6622 50.7557H44.7422C47.9636 50.6279 50.5287 47.9878 50.594 44.7341C50.5737 43.9947 50.4384 43.2629 50.1932 42.5651C50.0011 42.0025 49.7541 41.4602 49.4558 40.946L45.223 33.7112C44.7017 32.6066 43.8949 31.6613 42.8861 30.9727C41.8772 30.2841 40.7029 29.8774 39.4843 29.7944C38.2665 29.8815 37.0941 30.292 36.0879 30.9834C35.0817 31.6749 34.2782 32.6222 33.7602 33.7278ZM43.3797 34.8279L47.6125 42.0637C47.8368 42.4441 48.0241 42.844 48.1733 43.2614C48.3372 43.7354 48.4288 44.2319 48.4464 44.7341C48.3976 46.7891 46.7913 48.4598 44.7588 48.57C44.1114 48.5327 43.4707 48.4188 42.8501 48.2306L42.1615 48.02C41.3154 47.6685 40.415 47.4659 39.4999 47.4211C38.6166 47.4487 37.7441 47.6234 36.9183 47.938L36.2297 48.1497H36.1009C35.5938 48.3633 35.0476 48.4676 34.4975 48.4569H34.3532C32.3011 48.3808 30.6597 46.7091 30.6022 44.6366C30.6347 44.1605 30.7544 43.6944 30.9552 43.2614C31.1015 42.844 31.2888 42.4422 31.516 42.0637L35.7489 34.8279C36.0877 34.0692 36.6171 33.411 37.2858 32.9176C37.9544 32.4242 38.7393 32.1123 39.5643 32.0122C40.376 32.1212 41.1465 32.4355 41.8028 32.9253C42.4592 33.4151 42.9798 34.0642 43.3153 34.8114L43.3797 34.8279Z" fill="#6504B5"/>
</g>
<defs>
<clipPath id="clip0_1_47">
<rect width="79" height="79" fill="white" transform="translate(0 0.5)"/>
</clipPath>
</defs>
</svg>
