<svg width="18" height="23" viewBox="0 0 18 23" fill="none" xmlns="http://www.w3.org/2000/svg">
<path d="M10.6974 16.7612C10.0926 16.7777 9.49329 16.6424 8.9542 16.3677C8.41511 16.0931 7.95341 15.6877 7.61123 15.1888C7.61123 15.1888 6.87643 18.128 6.72212 18.6644C6.21211 20.1666 5.44099 21.5671 4.44423 22.8013C4.42433 22.8276 4.39719 22.8475 4.36614 22.8585C4.33509 22.8695 4.3015 22.8713 4.26948 22.8634C4.23747 22.8556 4.20844 22.8386 4.18596 22.8145C4.16348 22.7905 4.14854 22.7603 4.14296 22.7278C3.87387 21.1368 3.87884 19.5116 4.15766 17.9222L5.78157 11.0371C5.50652 10.4071 5.36875 9.72582 5.37743 9.03846C5.37743 7.16472 6.46494 5.76859 7.81698 5.76859C8.05857 5.76469 8.2982 5.81264 8.51969 5.9092C8.74118 6.00577 8.93939 6.14871 9.10096 6.32837C9.26252 6.50804 9.38368 6.72027 9.45626 6.95074C9.52884 7.1812 9.55117 7.42456 9.52172 7.66438C9.52172 8.81802 8.78691 10.5522 8.40482 12.1467C8.32974 12.443 8.32522 12.7529 8.39163 13.0513C8.45804 13.3497 8.59352 13.6284 8.78718 13.8649C8.98085 14.1014 9.2273 14.2893 9.50674 14.4133C9.78617 14.5373 10.0908 14.594 10.3961 14.5789C12.7916 14.5789 14.4008 11.5074 14.4008 7.86278C14.4008 5.09257 12.5344 3.02043 9.13962 3.02043C8.32802 2.98848 7.51841 3.12196 6.76002 3.41276C6.00163 3.70355 5.31032 4.14557 4.72814 4.71195C4.14595 5.27832 3.68507 5.9572 3.37351 6.7073C3.06196 7.4574 2.90624 8.26303 2.91584 9.0752C2.87998 9.97447 3.17544 10.8556 3.74617 11.5515C3.85408 11.6362 3.93071 11.7543 3.96398 11.8874C3.99724 12.0205 3.98524 12.1608 3.92987 12.2863C3.87108 12.5141 3.73147 13.0799 3.67269 13.3003C3.66203 13.3686 3.63519 13.4334 3.5944 13.4893C3.55361 13.5451 3.50006 13.5904 3.43821 13.6213C3.37637 13.6522 3.30802 13.6679 3.23888 13.667C3.16974 13.6662 3.10181 13.6488 3.04076 13.6163C1.30662 12.8594 0.483643 10.9269 0.483643 8.75189C0.483643 5.16605 3.51103 0.860107 9.51437 0.860107C14.342 0.860107 17.5164 4.35042 17.5164 8.09792C17.5164 13.0578 14.7609 16.7612 10.6974 16.7612Z" fill="white"/>
</svg>
