<svg width="19" height="20" viewBox="0 0 19 20" fill="none" xmlns="http://www.w3.org/2000/svg">
<path d="M7.61011 0.834994C8.87008 0.814469 10.1143 1.11709 11.2241 1.71399C12.4275 2.37585 13.4242 3.35773 14.1041 4.55099C14.7849 5.74565 15.123 7.10494 15.0812 8.47933C15.0394 9.85371 14.6193 11.1899 13.8671 12.341C13.1163 13.4904 12.0621 14.4097 10.8211 14.997C9.67721 15.5253 8.41703 15.7516 7.1608 15.6545C5.90456 15.5573 4.69417 15.1399 3.64511 14.442C2.59442 13.7435 1.73943 12.7883 1.16111 11.667C0.582088 10.5441 0.298462 9.29231 0.336951 8.02952C0.37544 6.76673 0.734776 5.53453 1.38111 4.44899C2.02606 3.36486 2.93718 2.46338 4.02811 1.82999C5.11759 1.19797 6.35075 0.855431 7.61011 0.834994ZM5.21411 12.038C5.95677 12.5422 6.83249 12.8144 7.73011 12.82C8.32841 12.8206 8.92098 12.7034 9.47398 12.475C10.027 12.2467 10.5296 11.9116 10.9531 11.489C11.8103 10.6336 12.2944 9.47395 12.3001 8.26299C12.3001 7.36299 12.0341 6.48299 11.5361 5.73399C11.0391 4.98607 10.3317 4.40216 9.50311 4.05599C8.67491 3.70985 7.76251 3.61773 6.88183 3.79133C6.00116 3.96494 5.19198 4.39644 4.55711 5.03099C3.92002 5.66622 3.48497 6.47565 3.30669 7.35748C3.1284 8.2393 3.21483 9.15416 3.55511 9.98699C3.89345 10.8198 4.47113 11.5335 5.21511 12.038H5.21411ZM15.2531 13.756L18.2401 16.718C18.375 16.8499 18.4822 17.0074 18.5556 17.1811C18.629 17.3549 18.6671 17.5416 18.6677 17.7302C18.6682 17.9189 18.6312 18.1058 18.5589 18.28C18.4865 18.4542 18.3802 18.6123 18.2461 18.745C18.1127 18.8785 17.9544 18.9844 17.78 19.0567C17.6057 19.129 17.4188 19.1662 17.2301 19.1662C17.0414 19.1662 16.8545 19.129 16.6802 19.0567C16.5059 18.9844 16.3475 18.8785 16.2141 18.745L13.2441 15.8C14.0131 15.224 14.6905 14.5348 15.2531 13.756Z" fill="white"/>
</svg>
