<svg width="8" height="6" viewBox="0 0 8 6" fill="none" xmlns="http://www.w3.org/2000/svg">
<path d="M7.10773 1.52185C7.05087 1.38029 6.97948 1.24357 6.89237 1.11775C6.62619 0.730577 6.20152 0.495857 5.73934 0.422053C5.63286 0.405114 5.52276 0.395436 5.41024 0.394226C5.0751 0.390596 4.72907 0.46198 4.44958 0.630156C4.35521 0.687021 4.26931 0.752355 4.19067 0.827369C4.11202 0.901173 4.04185 0.984657 3.98014 1.07298C3.85672 0.893854 3.69672 0.742928 3.5107 0.630156C3.41754 0.574501 3.31712 0.528525 3.21186 0.493438C3.00134 0.423263 2.77387 0.391806 2.55004 0.394226C2.43873 0.395436 2.32742 0.405114 2.22095 0.422053C1.75877 0.495857 1.3353 0.730577 1.06792 1.11775C0.980803 1.24357 0.909419 1.38029 0.852554 1.52185C0.557339 2.25021 0.681958 3.07052 1.12478 3.77226C1.40064 4.20904 1.78055 4.5708 2.20885 4.85633C2.24878 4.8769 2.28629 4.90836 2.32379 4.93256C2.36251 4.95796 2.40243 4.98216 2.44236 5.00515C2.48592 5.03056 2.53311 5.04992 2.57787 5.07412C2.65652 5.11767 2.73636 5.1576 2.81622 5.19632C2.89244 5.23261 2.96746 5.2677 3.04489 5.30037C3.08603 5.31852 3.12595 5.34029 3.1683 5.35723C3.22274 5.37901 3.2784 5.39474 3.33406 5.4141C3.37641 5.42983 3.41754 5.44797 3.45989 5.46249C3.57846 5.50242 3.69703 5.53993 3.82044 5.55929C3.87488 5.56776 3.92691 5.57017 3.97893 5.57017C4.03096 5.57017 4.08298 5.56776 4.13743 5.55929C4.26084 5.53993 4.38062 5.50242 4.49798 5.46249C4.54033 5.44797 4.58146 5.42862 4.62381 5.41289C4.67946 5.39353 4.73512 5.3778 4.78957 5.35602C4.83191 5.33908 4.87184 5.31731 4.91298 5.29916C4.99041 5.26649 5.06542 5.2314 5.14164 5.19511C5.22271 5.15639 5.30135 5.11646 5.37999 5.07291C5.42476 5.04871 5.47195 5.02935 5.51551 5.00394C5.55543 4.98095 5.59536 4.95555 5.63407 4.93135C5.67158 4.90715 5.70909 4.87448 5.74902 4.85512C6.17611 4.56838 6.55723 4.20662 6.83309 3.77105C7.27591 3.06931 7.40053 2.249 7.10531 1.52064L7.10773 1.52185Z" fill="#C22A22"/>
</svg>
