<svg width="36" height="5" viewBox="0 0 36 5" fill="none" xmlns="http://www.w3.org/2000/svg">
<path d="M3.18777 1.86334C3.18777 2.21663 3.06799 2.48886 2.82601 2.67881C2.58524 2.86876 2.24042 2.96434 1.79155 2.96434H1.38139V4.33637H0.976074V0.848232H1.87987C2.75221 0.848232 3.18777 1.187 3.18777 1.86455V1.86334ZM1.38139 2.61469H1.74678C2.10612 2.61469 2.36625 2.55661 2.52717 2.44046C2.68808 2.32431 2.76793 2.13799 2.76793 1.88149C2.76793 1.6504 2.69171 1.4798 2.54168 1.36607C2.39045 1.25355 2.15452 1.19668 1.8351 1.19668H1.38139V2.61347V2.61469ZM7.43572 2.58565C7.43572 3.14462 7.29417 3.5826 7.01226 3.90323C6.73035 4.22264 6.33714 4.38235 5.83503 4.38235C5.33292 4.38235 4.92519 4.22506 4.6457 3.9117C4.36621 3.59712 4.22707 3.1543 4.22707 2.58081C4.22707 2.00732 4.36742 1.57296 4.64691 1.26081C4.92639 0.947444 5.32445 0.791367 5.83987 0.791367C6.35529 0.791367 6.73277 0.949863 7.01347 1.26928C7.29538 1.58748 7.43572 2.02667 7.43572 2.58686V2.58565ZM4.65538 2.58565C4.65538 3.05751 4.7558 3.41685 4.95664 3.66004C5.15749 3.90444 5.45028 4.02664 5.83382 4.02664C6.21736 4.02664 6.51258 3.90565 6.70979 3.66125C6.907 3.41806 7.005 3.05872 7.005 2.58565C7.005 2.11258 6.907 1.7605 6.70979 1.51852C6.51378 1.27533 6.22341 1.15434 5.83745 1.15434C5.45149 1.15434 5.15749 1.27654 4.95543 1.52094C4.75459 1.76534 4.65417 2.12105 4.65417 2.58686L4.65538 2.58565ZM11.7466 4.33516H11.3449L10.6408 1.99885C10.6081 1.89601 10.5694 1.76534 10.5282 1.60805C10.4871 1.45076 10.4653 1.35639 10.4641 1.32372C10.429 1.53425 10.3734 1.76413 10.2971 2.01337L9.61475 4.33516H9.21428L8.28629 0.847023H8.7158L9.26751 3.00185C9.34374 3.30433 9.39939 3.57777 9.43448 3.82217C9.47683 3.53058 9.54095 3.24625 9.62565 2.96797L10.2512 0.847023H10.6807L11.3364 2.98733C11.4127 3.23415 11.4768 3.51243 11.53 3.82217C11.5603 3.59592 11.6171 3.32006 11.7018 2.9958L12.2511 0.845812H12.6806L11.7478 4.33395L11.7466 4.33516ZM15.6594 4.33516H13.7151V0.847023H15.6594V1.20757H14.1204V2.33157H15.5662V2.6897H14.1204V3.9734H15.6594V4.33637V4.33516ZM17.3279 2.88449V4.33516H16.9225V0.847023H17.8796C18.3079 0.847023 18.6237 0.929296 18.8281 1.09263C19.0326 1.25718 19.1342 1.50279 19.1342 1.83188C19.1342 2.29406 18.9007 2.60501 18.4325 2.76713L19.3799 4.33516H18.9007L18.0562 2.88449H17.3279ZM17.3279 2.53604H17.8844C18.1712 2.53604 18.3805 2.47918 18.5148 2.36545C18.6479 2.25172 18.7156 2.08112 18.7156 1.85366C18.7156 1.6262 18.6479 1.45681 18.5111 1.35518C18.3756 1.25355 18.1566 1.20273 17.8566 1.20273H17.3291V2.53725L17.3279 2.53604ZM22.3768 4.33516H20.4325V0.847023H22.3768V1.20757H20.8378V2.33157H22.2836V2.6897H20.8378V3.9734H22.3768V4.33637V4.33516ZM26.4239 2.55782C26.4239 3.13373 26.2678 3.57414 25.9544 3.87782C25.6423 4.18272 25.1922 4.33516 24.6054 4.33516H23.6387V0.847023H24.707C25.2503 0.847023 25.6713 0.99705 25.9714 1.29831C26.2714 1.59958 26.4227 2.01942 26.4227 2.55903L26.4239 2.55782ZM25.9944 2.57234C25.9944 2.11742 25.8806 1.77501 25.652 1.54392C25.4233 1.31283 25.0845 1.19789 24.6344 1.19789H24.0452V3.98429H24.5389C25.0228 3.98429 25.3858 3.86572 25.629 3.62737C25.8722 3.38902 25.9944 3.03694 25.9944 2.57113V2.57234ZM29.4486 0.845812H30.4335C30.8969 0.845812 31.2308 0.914776 31.4377 1.05391C31.6446 1.19184 31.7474 1.41083 31.7474 1.70968C31.7474 1.91657 31.6894 2.08717 31.5744 2.22147C31.4583 2.35577 31.2913 2.44288 31.0699 2.48281V2.5058C31.5998 2.59654 31.8648 2.87481 31.8648 3.34063C31.8648 3.65278 31.7595 3.89597 31.549 4.07019C31.3385 4.24563 31.0433 4.33274 30.6646 4.33274H29.4474V0.844602L29.4486 0.845812ZM29.854 2.34004H30.5218C30.8086 2.34004 31.0142 2.29527 31.1401 2.20574C31.2659 2.11621 31.3288 1.96497 31.3288 1.75082C31.3288 1.55481 31.2586 1.41447 31.1183 1.32735C30.978 1.24024 30.7553 1.19789 30.4504 1.19789H29.854V2.34125V2.34004ZM29.854 2.68365V3.98913H30.5823C30.8642 3.98913 31.0759 3.93469 31.2175 3.82458C31.3603 3.71569 31.4317 3.5451 31.4317 3.3128C31.4317 3.09743 31.3591 2.93773 31.2127 2.8361C31.0675 2.73446 30.8461 2.68244 30.5484 2.68244H29.854V2.68365ZM33.9918 2.59049L34.9222 0.847023H35.3614L34.1975 2.9825V4.33516H33.7873V3.00185L32.6258 0.847023H33.0699L33.993 2.59049H33.9918Z" fill="#555557"/>
</svg>
