<svg width="117" height="11" viewBox="0 0 117 11" fill="none" xmlns="http://www.w3.org/2000/svg">
<path d="M1.18941 2.04031L0.983718 1.73747C1.23512 1.65176 1.37224 1.41749 1.37224 1.17751C1.37224 0.857523 1.14941 0.583252 0.760888 0.583252H0.000976562V2.39458H0.320937V1.76604H0.623758L0.943719 2.2403C1.08085 2.44601 1.18369 2.44601 1.43509 2.42887V2.14317C1.29796 2.14317 1.26368 2.16031 1.18369 2.04031H1.18941ZM0.749458 1.4632H0.326648V0.886093H0.749458C0.886585 0.886093 1.03514 0.95466 1.03514 1.17179C1.03514 1.37749 0.898012 1.45749 0.749458 1.45749V1.4632ZM22.0784 7.21717L19.4787 3.12026H20.6214L22.6155 6.25151L24.6266 3.12026H25.7179L23.124 7.20003V9.60561H22.0784V7.21717ZM28.8261 7.17146C28.8261 6.15437 28.4662 5.57155 27.392 5.57155C26.3179 5.57155 25.9579 6.15437 25.9579 7.17146C25.9579 8.18855 26.3121 8.7828 27.392 8.7828C28.4719 8.7828 28.8261 8.18283 28.8261 7.17146ZM24.9295 7.14289C24.9295 5.48013 25.6208 4.58875 27.3863 4.58875C29.1518 4.58875 29.8432 5.48013 29.8432 7.14289C29.8432 8.80566 29.1518 9.69704 27.3863 9.69704C25.6208 9.69704 24.9295 8.80566 24.9295 7.14289ZM30.8373 7.4343V4.70303H31.8544V7.46287C31.8544 8.19998 31.8601 8.75995 33.0485 8.75995C34.2369 8.75995 34.2426 8.19998 34.2426 7.44573V4.70303H35.2368V7.41716C35.2368 8.94851 34.9283 9.69132 33.0485 9.69132C31.1687 9.69132 30.8373 8.95422 30.8373 7.42859M36.2253 4.76588L37.0252 4.70874L37.128 5.26871C37.328 4.9373 37.9279 4.67446 38.7564 4.65731V5.68012C37.5851 5.69154 37.2537 6.24008 37.2537 7.09147V9.61133H36.231V4.77159L36.2253 4.76588ZM44.6129 6.42865C45.5042 6.42865 45.9441 6.10295 45.9441 5.24014C45.9441 4.37733 45.527 4.08592 44.5957 4.08592H42.6702V6.43436H44.6129V6.42865ZM41.6361 3.12026H44.6129C46.3669 3.12026 47.0011 3.85736 47.0011 5.18871C47.0011 6.52007 46.3841 7.39431 44.5671 7.39431H42.6702V9.60561H41.6361V3.12026ZM48.5724 6.69149H51.1549C51.1092 5.98867 51.0407 5.49155 49.9894 5.49155C48.9381 5.49155 48.6524 5.96581 48.5724 6.69149ZM47.5839 7.14861C47.5839 5.7544 48.0239 4.59446 50.0179 4.59446C52.012 4.59446 52.1548 6.02867 52.1205 7.57715H48.5724C48.6295 8.34854 48.9381 8.82851 50.0351 8.82851C50.8121 8.82851 51.2006 8.62853 51.572 8.35425L52.1148 9.06279C51.5549 9.49133 50.9664 9.70275 50.0294 9.70275C47.9782 9.70275 47.5782 8.55424 47.5782 7.14861M52.6919 4.70303H53.5661L53.7546 3.38881L54.5488 3.22311V4.70303H55.8001V5.62869H54.5488V8.0457C54.5488 8.45711 54.6002 8.70281 55.2345 8.70281H55.8001V9.60561C55.663 9.61704 55.2059 9.61704 55.0402 9.61704C53.8232 9.61704 53.5375 9.17707 53.5375 8.19998V5.6344H52.6976V4.70874L52.6919 4.70303ZM56.7428 10.297C57.2342 10.0456 57.3371 9.94845 57.3371 9.60561H56.7428V8.2914H57.977V9.24563C57.977 10.1542 57.8399 10.4456 57.0057 10.8284L56.7428 10.2913V10.297ZM66.4674 6.37722C66.4674 4.8973 65.8103 4.04021 64.182 4.04021C62.5536 4.04021 61.9079 4.8973 61.9079 6.37722C61.9079 7.85714 62.565 8.72566 64.182 8.72566C65.7989 8.72566 66.4674 7.86857 66.4674 6.37722ZM60.8395 6.36008C60.8395 3.97735 62.1079 3.0174 64.182 3.0174C66.256 3.0174 67.5359 3.97735 67.5359 6.36008C67.5359 8.7428 66.256 9.71418 64.182 9.71418C62.1079 9.71418 60.8395 8.74852 60.8395 6.36008ZM68.4729 7.4343V4.70303H69.4899V7.46287C69.4899 8.19998 69.4956 8.75995 70.6841 8.75995C71.8725 8.75995 71.8782 8.19998 71.8782 7.44573V4.70303H72.8724V7.41716C72.8724 8.94851 72.5638 9.69132 70.6841 9.69132C68.8043 9.69132 68.4729 8.95422 68.4729 7.42859M73.9294 4.76588L74.7293 4.70874L74.8321 5.26871C75.0321 4.9373 75.632 4.67446 76.4605 4.65731V5.68012C75.2892 5.69154 74.9578 6.24008 74.9578 7.09147V9.61133H73.9351V4.77159L73.9294 4.76588ZM82.317 6.42865C83.2083 6.42865 83.6482 6.10295 83.6482 5.24014C83.6482 4.37733 83.2311 4.08592 82.2998 4.08592H80.3743V6.43436H82.317V6.42865ZM79.3402 3.12026H82.317C84.071 3.12026 84.7053 3.85736 84.7053 5.18871C84.7053 6.52007 84.0882 7.39431 82.2713 7.39431H80.3686V9.60561H79.3345V3.12026H79.3402ZM88.6134 7.49716V7.24574H88.4305C86.5051 7.24574 86.1394 7.46287 86.1394 8.11998C86.1394 8.5771 86.3508 8.8228 87.1278 8.8228C88.1791 8.8228 88.6191 8.42282 88.6191 7.49716M85.1795 8.19998C85.1795 6.80577 85.968 6.40579 88.3791 6.40579H88.6191C88.6019 5.82297 88.4477 5.54869 87.4706 5.54869C86.865 5.54869 86.3622 5.77725 86.0537 5.9601L85.5223 5.16014C85.8537 4.93159 86.6593 4.59446 87.5792 4.59446C89.2819 4.59446 89.6018 5.16014 89.6018 6.55435V8.19998C89.6018 8.64567 89.6361 8.71423 90.0646 8.71423V9.5999C89.9961 9.61704 89.8647 9.61704 89.6418 9.61704C89.1447 9.61704 88.9048 9.51991 88.7791 9.1085C88.4991 9.48562 87.962 9.69132 86.9564 9.69132C85.5109 9.69132 85.1795 9.0285 85.1795 8.19426M90.6588 9.09707L91.1845 8.30854C91.7273 8.65709 92.3729 8.80566 92.91 8.80566C93.6985 8.80566 93.9956 8.69138 93.9956 8.19998C93.9956 7.8 93.7213 7.72 92.9214 7.58858C91.7501 7.40574 90.9331 7.21717 90.9331 6.0401C90.9331 5.10872 91.4645 4.58303 92.9214 4.58303C93.6813 4.58303 94.3613 4.74302 94.8469 5.02301L94.367 5.86296C94.007 5.66869 93.4928 5.53155 92.95 5.53155C92.1444 5.53155 91.9444 5.7144 91.9444 6.0401C91.9444 6.43436 92.2072 6.5315 92.95 6.65149C94.167 6.85148 94.9898 7.00004 94.9898 8.14855C94.9898 9.29706 94.3784 9.69132 92.8586 9.69132C92.1158 9.69132 91.333 9.54276 90.6703 9.09707M95.4754 9.09707L96.0011 8.30854C96.5439 8.65709 97.1895 8.80566 97.7266 8.80566C98.5151 8.80566 98.8122 8.69138 98.8122 8.19998C98.8122 7.8 98.5379 7.72 97.738 7.58858C96.5667 7.40574 95.7497 7.21717 95.7497 6.0401C95.7497 5.10872 96.281 4.58303 97.738 4.58303C98.4979 4.58303 99.1778 4.74302 99.6635 5.02301L99.1835 5.86296C98.8236 5.66869 98.3094 5.53155 97.7666 5.53155C96.961 5.53155 96.761 5.7144 96.761 6.0401C96.761 6.43436 97.0238 6.5315 97.7666 6.65149C98.9836 6.85148 99.8063 7.00004 99.8063 8.14855C99.8063 9.29706 99.195 9.69132 97.6752 9.69132C96.9324 9.69132 96.1496 9.54276 95.4868 9.09707M100.663 9.60561H101.669V4.70303H100.663V9.60561ZM100.652 4.16591H101.675V3.04597H100.652V4.16591ZM106.48 7.17146C106.48 6.15437 106.12 5.57155 105.046 5.57155C103.972 5.57155 103.612 6.15437 103.612 7.17146C103.612 8.18855 103.966 8.7828 105.046 8.7828C106.126 8.7828 106.48 8.18283 106.48 7.17146ZM102.583 7.14289C102.583 5.48013 103.274 4.58875 105.04 4.58875C106.806 4.58875 107.497 5.48013 107.497 7.14289C107.497 8.80566 106.806 9.69704 105.04 9.69704C103.274 9.69704 102.583 8.80566 102.583 7.14289ZM108.422 4.76588L109.222 4.70874L109.308 5.13729C109.542 4.84588 110.017 4.59446 111.102 4.59446C112.622 4.59446 112.862 5.41727 112.862 6.63435V9.61133H111.851V6.83434C111.851 6.11438 111.782 5.60583 110.765 5.60583C109.645 5.60583 109.451 6.14866 109.451 6.92005V9.61133H108.428V4.77159L108.422 4.76588ZM115.159 8.2914H113.925V9.60561H115.159V8.2914ZM115.456 3.90878C115.69 3.90878 115.77 3.85736 115.77 3.65166C115.77 3.44595 115.69 3.39453 115.456 3.39453H114.999V3.90878H115.462H115.456ZM115.404 4.22877H114.993V4.83445H114.622V3.06883H115.467C116.044 3.06883 116.147 3.3031 116.147 3.64023C116.147 3.89164 116.084 4.10306 115.776 4.19448L116.13 4.83445H115.73L115.399 4.22877H115.404ZM116.547 3.94878C116.547 3.24596 116.204 2.68028 115.342 2.68028C114.479 2.68028 114.136 3.24025 114.136 3.94878C114.136 4.65731 114.473 5.21728 115.342 5.21728C116.21 5.21728 116.547 4.65731 116.547 3.94878ZM113.902 3.94878C113.902 3.10883 114.382 2.46315 115.342 2.46315C116.302 2.46315 116.781 3.10883 116.781 3.94878C116.781 4.78874 116.302 5.43441 115.342 5.43441C114.382 5.43441 113.902 4.78874 113.902 3.94878Z" fill="white"/>
</svg>
