<svg width="22" height="18" viewBox="0 0 22 18" fill="none" xmlns="http://www.w3.org/2000/svg">
<path d="M21.7735 4.12166C21.7735 4.12166 21.5471 2.49119 20.9017 1.7722C20.6251 1.45686 20.2835 1.20506 19.9005 1.03405C19.5174 0.863049 19.1019 0.776884 18.6825 0.781464C15.631 0.55501 11 0.515381 11 0.515381C11 0.515381 6.37468 0.55501 3.30057 0.781464C2.88592 0.788014 2.47691 0.878702 2.09836 1.04803C1.7198 1.21736 1.37957 1.4618 1.0983 1.76654C0.41894 2.48553 0.226454 4.12166 0.226454 4.12166C0.0851676 5.40586 0.00958443 6.69644 0 7.98836L0 9.77169C0.00862608 11.0523 0.0842139 12.3317 0.226454 13.6044C0.226454 13.6044 0.452908 15.2349 1.0983 15.9539C1.93052 16.905 3.03448 16.8654 3.52702 16.9786C5.27072 17.1711 11 17.205 11 17.205C11 17.205 15.6253 17.205 18.6994 16.939C19.1141 16.9324 19.5231 16.8417 19.9016 16.6724C20.2802 16.5031 20.6204 16.2586 20.9017 15.9539C21.5471 15.2349 21.7735 13.6044 21.7735 13.6044C21.9141 12.3315 21.9896 11.0523 22 9.77169V7.98836C21.9904 6.69644 21.9148 5.40586 21.7735 4.12166ZM8.34483 13.2591V5.04446L15.5517 9.2565L8.34483 13.2591Z" fill="white"/>
</svg>
